<mxfile host="app.diagrams.net" modified="2021-05-24T09:08:10.464Z" agent="5.0 (Windows)" etag="DcLpATSgK21wZ9S7d7ZY" version="14.7.0" type="github">
  <diagram id="TAK2x4sSzj42mIdyVDC0" name="Sayfa -1">
    <mxGraphModel dx="2692" dy="547" grid="1" gridSize="10" guides="1" tooltips="1" connect="1" arrows="0" fold="1" page="1" pageScale="1" pageWidth="827" pageHeight="1169" background="none" math="0" shadow="0">
      <root>
        <mxCell id="0" />
        <mxCell id="1" parent="0" />
        <mxCell id="I3CxHTRFZZ70S9utpLFL-1" value="&lt;div&gt;Öğrenci Kayıt Programı Giriş&lt;/div&gt;" style="ellipse;whiteSpace=wrap;html=1;" parent="1" vertex="1">
          <mxGeometry x="360" y="10" width="120" height="80" as="geometry" />
        </mxCell>
        <mxCell id="SG6jkDlS0VIner6yAyDT-6" style="edgeStyle=orthogonalEdgeStyle;rounded=0;orthogonalLoop=1;jettySize=auto;html=1;" edge="1" parent="1" target="I3CxHTRFZZ70S9utpLFL-1">
          <mxGeometry relative="1" as="geometry">
            <mxPoint x="230" y="220" as="sourcePoint" />
          </mxGeometry>
        </mxCell>
        <mxCell id="SG6jkDlS0VIner6yAyDT-7" style="edgeStyle=orthogonalEdgeStyle;rounded=0;orthogonalLoop=1;jettySize=auto;html=1;entryX=0.383;entryY=1.038;entryDx=0;entryDy=0;entryPerimeter=0;" edge="1" parent="1" target="I3CxHTRFZZ70S9utpLFL-1">
          <mxGeometry relative="1" as="geometry">
            <mxPoint x="320" y="190" as="sourcePoint" />
          </mxGeometry>
        </mxCell>
        <mxCell id="SG6jkDlS0VIner6yAyDT-8" style="edgeStyle=orthogonalEdgeStyle;rounded=0;orthogonalLoop=1;jettySize=auto;html=1;entryX=0.567;entryY=1.038;entryDx=0;entryDy=0;entryPerimeter=0;" edge="1" parent="1" source="SG6jkDlS0VIner6yAyDT-3" target="I3CxHTRFZZ70S9utpLFL-1">
          <mxGeometry relative="1" as="geometry">
            <Array as="points">
              <mxPoint x="400" y="220" />
              <mxPoint x="400" y="140" />
              <mxPoint x="428" y="140" />
            </Array>
          </mxGeometry>
        </mxCell>
        <mxCell id="SG6jkDlS0VIner6yAyDT-3" value="Müdür Giriş" style="shape=parallelogram;perimeter=parallelogramPerimeter;whiteSpace=wrap;html=1;fixedSize=1;" vertex="1" parent="1">
          <mxGeometry x="550" y="190" width="120" height="60" as="geometry" />
        </mxCell>
        <mxCell id="SG6jkDlS0VIner6yAyDT-9" style="edgeStyle=orthogonalEdgeStyle;rounded=0;orthogonalLoop=1;jettySize=auto;html=1;" edge="1" parent="1" target="I3CxHTRFZZ70S9utpLFL-1">
          <mxGeometry relative="1" as="geometry">
            <mxPoint x="490" y="190" as="sourcePoint" />
          </mxGeometry>
        </mxCell>
        <mxCell id="SG6jkDlS0VIner6yAyDT-11" style="edgeStyle=orthogonalEdgeStyle;rounded=0;orthogonalLoop=1;jettySize=auto;html=1;entryX=0.692;entryY=0.988;entryDx=0;entryDy=0;entryPerimeter=0;" edge="1" parent="1" source="SG6jkDlS0VIner6yAyDT-5" target="I3CxHTRFZZ70S9utpLFL-1">
          <mxGeometry relative="1" as="geometry" />
        </mxCell>
        <mxCell id="SG6jkDlS0VIner6yAyDT-5" value="Root Giriş" style="shape=parallelogram;perimeter=parallelogramPerimeter;whiteSpace=wrap;html=1;fixedSize=1;" vertex="1" parent="1">
          <mxGeometry x="700" y="150" width="120" height="60" as="geometry" />
        </mxCell>
        <mxCell id="SG6jkDlS0VIner6yAyDT-13" style="edgeStyle=orthogonalEdgeStyle;rounded=0;orthogonalLoop=1;jettySize=auto;html=1;" edge="1" parent="1" source="SG6jkDlS0VIner6yAyDT-12" target="I3CxHTRFZZ70S9utpLFL-1">
          <mxGeometry relative="1" as="geometry" />
        </mxCell>
        <mxCell id="SG6jkDlS0VIner6yAyDT-15" style="edgeStyle=orthogonalEdgeStyle;rounded=0;orthogonalLoop=1;jettySize=auto;html=1;entryX=0.667;entryY=1;entryDx=0;entryDy=0;entryPerimeter=0;" edge="1" parent="1" source="SG6jkDlS0VIner6yAyDT-12" target="I3CxHTRFZZ70S9utpLFL-1">
          <mxGeometry relative="1" as="geometry" />
        </mxCell>
        <mxCell id="SG6jkDlS0VIner6yAyDT-12" value="Sekreter Giriş" style="shape=parallelogram;perimeter=parallelogramPerimeter;whiteSpace=wrap;html=1;fixedSize=1;" vertex="1" parent="1">
          <mxGeometry x="-10" y="190" width="120" height="60" as="geometry" />
        </mxCell>
        <mxCell id="SG6jkDlS0VIner6yAyDT-14" value="Muhasebe Giriş" style="shape=parallelogram;perimeter=parallelogramPerimeter;whiteSpace=wrap;html=1;fixedSize=1;" vertex="1" parent="1">
          <mxGeometry x="430" y="190" width="120" height="60" as="geometry" />
        </mxCell>
        <mxCell id="SG6jkDlS0VIner6yAyDT-23" value="Öğrenci Giriş" style="shape=parallelogram;perimeter=parallelogramPerimeter;whiteSpace=wrap;html=1;fixedSize=1;" vertex="1" parent="1">
          <mxGeometry x="120" y="190" width="120" height="60" as="geometry" />
        </mxCell>
        <mxCell id="SG6jkDlS0VIner6yAyDT-24" value="Öğretmen Giriş" style="shape=parallelogram;perimeter=parallelogramPerimeter;whiteSpace=wrap;html=1;fixedSize=1;" vertex="1" parent="1">
          <mxGeometry x="260" y="190" width="120" height="60" as="geometry" />
        </mxCell>
        <mxCell id="SG6jkDlS0VIner6yAyDT-72" value="Öğrenci Kayıt Ekranı" style="swimlane;fontStyle=0;childLayout=stackLayout;horizontal=1;startSize=26;horizontalStack=0;resizeParent=1;resizeParentMax=0;resizeLast=0;collapsible=1;marginBottom=0;" vertex="1" parent="1">
          <mxGeometry x="-1170" y="340" width="460" height="294" as="geometry" />
        </mxCell>
        <mxCell id="SG6jkDlS0VIner6yAyDT-74" value="Tc " style="text;strokeColor=none;fillColor=none;align=left;verticalAlign=top;spacingLeft=4;spacingRight=4;overflow=hidden;rotatable=0;points=[[0,0.5],[1,0.5]];portConstraint=eastwest;fontStyle=1" vertex="1" parent="SG6jkDlS0VIner6yAyDT-72">
          <mxGeometry y="26" width="460" height="26" as="geometry" />
        </mxCell>
        <mxCell id="SG6jkDlS0VIner6yAyDT-73" value="Öğrenci No" style="text;strokeColor=none;fillColor=none;align=left;verticalAlign=top;spacingLeft=4;spacingRight=4;overflow=hidden;rotatable=0;points=[[0,0.5],[1,0.5]];portConstraint=eastwest;strokeWidth=9;fontStyle=1" vertex="1" parent="SG6jkDlS0VIner6yAyDT-72">
          <mxGeometry y="52" width="460" height="26" as="geometry" />
        </mxCell>
        <mxCell id="SG6jkDlS0VIner6yAyDT-78" value="Öğrenci Soyadı" style="text;strokeColor=none;fillColor=none;align=left;verticalAlign=top;spacingLeft=4;spacingRight=4;overflow=hidden;rotatable=0;points=[[0,0.5],[1,0.5]];portConstraint=eastwest;fontStyle=1" vertex="1" parent="SG6jkDlS0VIner6yAyDT-72">
          <mxGeometry y="78" width="460" height="28" as="geometry" />
        </mxCell>
        <mxCell id="SG6jkDlS0VIner6yAyDT-79" value="Öğrenci Tel No" style="text;strokeColor=none;fillColor=none;align=left;verticalAlign=top;spacingLeft=4;spacingRight=4;overflow=hidden;rotatable=0;points=[[0,0.5],[1,0.5]];portConstraint=eastwest;fontStyle=1" vertex="1" parent="SG6jkDlS0VIner6yAyDT-72">
          <mxGeometry y="106" width="460" height="26" as="geometry" />
        </mxCell>
        <mxCell id="SG6jkDlS0VIner6yAyDT-80" value="Veli Adı" style="text;strokeColor=none;fillColor=none;align=left;verticalAlign=top;spacingLeft=4;spacingRight=4;overflow=hidden;rotatable=0;points=[[0,0.5],[1,0.5]];portConstraint=eastwest;fontStyle=1" vertex="1" parent="SG6jkDlS0VIner6yAyDT-72">
          <mxGeometry y="132" width="460" height="26" as="geometry" />
        </mxCell>
        <mxCell id="SG6jkDlS0VIner6yAyDT-81" value="Veli Soyadı" style="text;strokeColor=none;fillColor=none;align=left;verticalAlign=top;spacingLeft=4;spacingRight=4;overflow=hidden;rotatable=0;points=[[0,0.5],[1,0.5]];portConstraint=eastwest;fontStyle=1" vertex="1" parent="SG6jkDlS0VIner6yAyDT-72">
          <mxGeometry y="158" width="460" height="28" as="geometry" />
        </mxCell>
        <mxCell id="SG6jkDlS0VIner6yAyDT-83" value="Veli Tel" style="text;strokeColor=none;fillColor=none;align=left;verticalAlign=top;spacingLeft=4;spacingRight=4;overflow=hidden;rotatable=0;points=[[0,0.5],[1,0.5]];portConstraint=eastwest;fontStyle=1" vertex="1" parent="SG6jkDlS0VIner6yAyDT-72">
          <mxGeometry y="186" width="460" height="28" as="geometry" />
        </mxCell>
        <mxCell id="SG6jkDlS0VIner6yAyDT-86" value="Adres" style="text;strokeColor=none;fillColor=none;align=left;verticalAlign=top;spacingLeft=4;spacingRight=4;overflow=hidden;rotatable=0;points=[[0,0.5],[1,0.5]];portConstraint=eastwest;fontStyle=1" vertex="1" parent="SG6jkDlS0VIner6yAyDT-72">
          <mxGeometry y="214" width="460" height="26" as="geometry" />
        </mxCell>
        <mxCell id="SG6jkDlS0VIner6yAyDT-84" value="Bilinen Hastalığı" style="text;strokeColor=none;fillColor=none;align=left;verticalAlign=top;spacingLeft=4;spacingRight=4;overflow=hidden;rotatable=0;points=[[0,0.5],[1,0.5]];portConstraint=eastwest;fontStyle=1" vertex="1" parent="SG6jkDlS0VIner6yAyDT-72">
          <mxGeometry y="240" width="460" height="26" as="geometry" />
        </mxCell>
        <mxCell id="SG6jkDlS0VIner6yAyDT-75" value="Kullandığı İlaçlar" style="text;strokeColor=none;fillColor=none;align=left;verticalAlign=top;spacingLeft=4;spacingRight=4;overflow=hidden;rotatable=0;points=[[0,0.5],[1,0.5]];portConstraint=eastwest;fontStyle=1" vertex="1" parent="SG6jkDlS0VIner6yAyDT-72">
          <mxGeometry y="266" width="460" height="28" as="geometry" />
        </mxCell>
        <mxCell id="SG6jkDlS0VIner6yAyDT-91" value="" style="shape=image;imageAspect=0;aspect=fixed;verticalLabelPosition=bottom;verticalAlign=top;strokeWidth=9;gradientColor=none;image=data:image/png,iVBORw0KGgoAAAANSUhEUgAAAQ8AAAAzCAYAAACJ4I1cAAAABHNCSVQICAgIfAhkiAAAAAlwSFlzAAALEgAACxIB0t1+/AAAABx0RVh0U29mdHdhcmUAQWRvYmUgRmlyZXdvcmtzIENTNui8sowAAAENcHJWV3ic7dPdTcMwEMDx+/DtwQpVFmEFHgivXSfLdACUXdiAcA6OeKFqS5FM0P8ny4r8dTlf8vp+epOjHJdlmed5mqZxHIdhEAAAAAAAAAAAANzLxcRU3NRFzMzrgGerU3Uoe/UcMK+P20RbptK2bhOqeYJrPvq639bWjvoufkip8SM0ckV4RC7NLupU7bK3kr1Fia+JXG91k7St24Ra5LqMH2XdH2v7POpsfP/V+CXW+HF9/Ev5a9yYv/0wf787f9O/kH/X+rf775Z/u/9u9W/3v8fv/7/8/73r3/X77/3/U3/qv6f843L9azi/On7cUn8AAAAAAAAAAAAAAPbvUZ7kRZ7lQQ69XwUdfAC6CCYA3bwf8QAAAEhta0JG+t7K/gAAAAQAAAAAAAAAAAAAAAAAAAAAAAAAAAAAAAAAAAAAAAAAAAAAAAAAAAAAAAAAAAAAAAAAAAAAAAAAAAAAAAAAAAAAKaQzoQAAOwNta1RTeJztfdtz20aWNyYTJ5Ys23GyNfuwL6ra/WqfksGVl0dRFCVNdOGQlGPnxQWCRKyNbGdlWYmXxf/9O+f0hUCjcSUpURkYiZpAN4DG71z79Gng9MfO7ezlYHg58+cvB6eXM2veG+xHisE/zy5nruOYrjOdzl+d7Iczc/6aFT8dd8OZ3bTmR8ejcOZB44NhOGva88Hw4hLqO4dwiZD+zfsnJ7ezTh/+7O+NPs6MLWNsBMYbo29Mjffw69K4mh+fnULNNtS8hxrL+B5qL40/oMXVfNA9H+Ml987oynvQY2famne6x9jLzil0PYSCHqQzPKBGwx7VDY+o6JzQwc6PVOyf8Qsc9Gh/MKJGvQ7t9QZUnLGDw/7lrN2Yd0ascsSuPhqym5yy67HieA97eYa9Mufdc+ty1oLCxst0zx0qenDQhsJmhYPFvBAy/65Dxtg19uDoDex/D7+uoPSNj1AzuUvMrCUxs9aF2ROO2aFxDbj8ZryFuhtjmomNy7CZZmBjarEJghg2ZgY2QYth49il0bFcBo/P4PEZPC0GT4vB05oP+z/DXcbz4ZCX/XNAzfPhAP9RDMAXHMB94wMw1weAEVgLmC7aMgomXJjQtL0sNP0CaCqcloWmwmn+aqWTIGw0NBAO+x1WM2RlFNLHHNIOyeOlEXBAn3NAhwBmCLy4awzg1yc4NsmVWi2WVuiuVm6doKLc+mXlNg2jHY7RERy/JnY7gdr365LbEnagBDbmerB5nsBmSf5ZsaW8f4R2EhJWmXtU2SrDP/csW0Kldwmdt8QbDJ9vOD6RGtgbATddgoW8ysHJ3lAd5NwRTl2StvGDxcleOU5bEqcPIG03d2jFMn2CwK0oaiaDxmTQmAwak0FjMmjMgtA817LQEZS+cWt8fpDG3oq7oR6DyWMw+Qwmn8GkdzKTMD1LgYksXHkpu3ebb2XImMcQ8hhC3lKMtLB8D1ETZaGUpYl2OEp78OTXYN078PcToqKM+UaA0h+gjz6xQUsmRo4WJKpOBclqc5jscdbAj4Z4VYd+WhfJZlDZDCqXQeUyqFw28rPsdnzoh49C4xY4UAbMxxzMYqyGTBCBseEWwVEwW8stgeJkSTezCIYgIoUwfMYx3AeMrigE84sMN3zmOH7FcfwJWPEmhmFzwkBsitCMXvFnOaJ4akxe7Xz7WNkTtVvFEOzw+EOnEl7CqRhA7Ri2D8Z7LWqtgKPWXpEluEfMymIkZPOfILGX2CqGkOsxhKyxwlgi6GcyjIIs2Qz9IiiR6EZwanDXC89eD3P9jDfloRnHmizksyqfoX57R3z2ITtwykG0nMKDaMt0y7OaZzIIyU4jhmFWVGs1IFblP71tUCV0uloB1btq9p0J6BMJ0FvyUwNgHV+GTb+OxyAKsRRHhuQx10Oz7IDDg4axIFM1ppyp8GQEiAKnxexmQaYaAC/Z0yn86CQFMhuzKn6b3lhS8DkdusAuL4/Sa/NsBh3DsBh21rSwyWQ+BvywwxLQCS3WJ0m8yZ8yi8PGWC1PjYVuBY4TloBLJMG4UobrCwswFG4vmgLm/4ofMWDpx4Cr1vIQ7xNXorHIHr6rECO7aBw5BeNmUJ41XT774XOMnYm7FpDj9rYj5kI0SG5JJNFkfCbnLa4XB3D815wIWosB2GYAko8R4VFz2TiRy9BjcoxP0+LeCo3rED+cy0IA7QwAPR4tAv+TjV/bDMIGx7DBQWxwFBlm+GMcKjNK6C0PjsjSFwPzsVSYOK0ZGL+WYUgatObJfDH3Ty/yJOrIjuOVGxliR5JnAeQgKvxMHUQQVXRpPqLFRrtBeUArDDoEnkn+LACoY+sAbXDe5KyZxplSiabgKBRmjxIRcKJlhFMIiqgz7ny/2ompgrEXczUJCXq2bCSm3DscvGEnOcWeDZaI752Qo/2W6k/JCoGWNK4zAwaBNnRlZ3jWC+exgplZG3pRXbiwMQJPqzUtgWc0oowYpqOZYnXKCLXlTYuEsO4Yzo6IYCUDMMWwO+K8eCV5UsVOJHuQR002xozZbOaHJ2y2dphH7mXRwbG/VuyiUH3FoTrX5MRgrBRdRJyEH9LUqc8nwLJZzNeO9wqYDRxYZURhAp+hZHPPJrCV4d6ED1mYv59jOkBbMqxaHKwWQyvgqUYBxytoqfYDfwzEj2TSzED+EN54f8CNzWAg/PNhcvSoI8V3+jEjD2Rf0mAob6a2WTEropDp4V5m6CvhHM6z7jjmYro6pm24ekJ4fE7S45OSUMZj/8whGpDdHg4H3I7zfbTnVsiQtsJcoJ/IgMYd8LkzKcTnytBcsnlmqCzFfXe5++4ybJ2AYUulQyWxNGNXLUuTskW0MSEMUQ794ny8LeG9IacUs3k+FrFTIg4pplosf7rsVAvnXE8ZH8WVLfpSQ0oYTgdXMG5RcAVwVijdTQLQzmfP7YhKLib1fkWpp+FMHnaOgp0YC4nwB3lniZGlVSBohEd7XBn0mDIg7Ei09xjTIX8SlkfkZuhE/CnH8CcS5SmPdlCCZwX3PeS8GMZ5MfRXBOeyZl8Ppa0bVjJ/M2q85GhSDZHnY1hugG63tLFM8kDzUMSoZMnxpCMCmei9LjU+d3RAUlpsWuJsNRiL5c0oU/nSBy2W8VACSDGclHaHzNZSIWFtFreMbi4G5uTXix+D84jqNJnYK8nIIuIx4Kblg/FOEXOWvJVtchwdfyrTh1rf3jGLe0pEr6SUj938WJy0N0osDglEuLIfDvvBfCUYVTJfCX+QH9owmbNE5nsgMGaqtBimYq6/h+6oDlF8mIgNEnqzjIeUudaAMNTFOPU2nGPq6DANWnrns80HTW0eRGo3mP0hOyRCRp2FyylCSMpINJ8xX9O4Pdv+xBVnodmMQjjGOXOsTShUPHit/UlzhNKCxPFQO4eNzHhh+BYO5f8CF/o0LMqWbq/q/GwJlcmGPxGHqMQEJACtlW483uPHe+y45ERSlk2uK5tMwAVHknwfsVFSMUzFGAjXwrw3QszkwYVXOlQtj4t4Iy7ifgnPqKHF1dTiSiHhKulQwqLHVxPZ3KRT6VDJdGGD2xfVFxJpZBcAzHsy5J9oHCP880ccOsfoVpjPbRZJHysSynTiLlAcLWAQzVi82HjRbmnc8iNmssvg9EKajitK6ikbWtLHggul3wn8LO2Ye+LGYku+1hW3psUHhapB0SIoDPNABoiSdrgopDg3fklLJdcOaWLazNFi2m7F43Whli31Y0VlmifQs6XOSqsLAxeROq4co5Eihj48YNNjBqhRDnxhhs7h+A1FkvPW4VhaL7McC3vFA3IKA7fzjbmYUlM05ooUwPZCUQKfHtI46Pe1A6aV+ThggdYtFxIfdyGtO9WZf+OQvaTIT0Drcz7SumjkN1ymursQ/vKizjI3iiKplfS49VGQpHF4Us5LmR+HxzIcnjAPJck5nyKPqtI+d85jw0fylSKB4lY8TpySM55GkB3pJ72lRBmcZJomMnhV8BtVA3JW8YkjOWR3GuXn0sWQPW/h9ZEIdhwlgx150D2VEaMPNCB/C4aKp3RlK4HVLfLIYt2WNr8SA1cRzrXLxILTlAAb+QzLe5rPIgj+QVG3XQotlcaQ0txKrAKROLr5/nrl10mgQ16ABylaFDQ1aRw0LUwHxA8h6H0+zMRHZHNwkXEnzWHMeyfd21kvugI3JFoMKWB3GVkRGBINzuiFAe+IOhepNZwmPQZIj7FijzFU74BA6w261GQwYHVHrHiFxbwXHbuxDvEFvzjuVboUrblIranWJZt1CYpD2aMX0J9AvoBiwg3STeR9Ch+l6Ad8CgM908D4FdhWvK6id/gSgD/bZxc/ht+HfXwFS4+9YsWkf/NIlSWq+PtXsO411pnLX8eqeAlRBfsE3TxGuiecdPu0ECkAqb7SkG/AQUxyVLSmGvkcRj6nJl8F8j3j5BsAQAE8NMZOflGI+EySStfmokCbaoT1GWH9mrAVCLst5RKDXmhPo4OVMBIQE3UXGXXVCOgyAro1AZeQTEaIGxoeXQvYFMnUt7ko0GYplWtZNWUrUHbhfvn0ArBFFnPIY//i+EXK8WpU8xjVvJpoSxCtT+5mEFloHfIwpTh+kXK8GtGajGjNmmhLEK1HwEwkLII4i+MXKcerEa3FiNaqiVaBaE850Q74AtbfSOlF/ZennEy6Fhe5LaqRtM1I2q5JWoGkX3OSdmhG+6NMFQjlqp1rKYPq0WrkChi5gppcFci1JQeFKDns3WLqeH5Ro47nFzXVSDdhpJvUpFvC4v1EGXfThMVbHL9IOV6NaFNGtGlNtCXG6v3F1LYcFGxLPzJad5FRV42AISNgGOvYjuSmqTE2ukSRtzTzLmaMBPeo9Rc59dU6afHoMZZdKwJsr2vH9pzYnhvbGzECHFJQvObWQtxaCadnHCesGdP7SG5ogQ+myESRaui757TwMSJVP9itRa3d9pvxWtdb1I4b6rmNrFObGadaao9UAj287t8zX7yIyA9wgvGaZpopY0LDHU7sURd9GZu278dxkDCEkxCq45Vt9UyVjuu80T0j/g1H/IBm9WnalVLUDim/FM7Kk0bbdIJ4F6PsbI3bTWucxs7W1A1hT8/ODX8amFYaOycvbKk9KiSNG939DeENIY0DWogZkck0WZT9aIPWsdMEJMwyVFoKrusm94zzFsd5SO98uyUvKEfq2k4bnjuNbV0btzS2HXtjZ2ylsS39S2PbyRQ3LRYtE7eCUrfR3b9nbngiueE3PmOK7+98l8cRSU4HSKOVqt/gRvwGP8OpwP/jla3FZdVKS+1OIXbY3L7fMy9sc16IvAUM6nI5ISkDC+FCNk/AKSWk0WBDBC2eeGIzTBMuduMUQJvwX2Fm2ODubwg/MEuc9Ii13cqwgcJ2qoRZ4jobYkux5jfSoFFb6mqNUdNtWIob78iHHk9ageLjtWRtI7Cnlp5ppuFkHEyS0N5PF+6ZKiIuIqMhiwhJPveqIq3rXBHuLXKde8bpOccJE98/UI71jXHOXx/xS76k223T99ppOkzrUi9xnQ3BiulCOV7NixOka7PIsCHpOcR6r4v1rOsmK4wrH/S6t7ODXmQ6dUpYH1PiNY7+O/D3lt41KubhpnLxmm/czA/6w9tZd/8A//xI1OLrWeg1Jzgrd0Ox3I88zy8AOnT3X0LLvxjQhciZT+CMt0RhPFtSl7f+2vhPw1xssTO3F70EfYIL6m6Mt/y8Lwwr0Rrvg/c4N8bG/zCPmrd+ZIQU7/gIvYyesxW5w8j4jFYk9SkO4Boh99NP6d1Rx0aXt/5/xsxoUm0D+gU9M2zje/gNqNAvPDahj/+14FgTatjzetSyCX8tqMG9uXLXIxopMk2qwy5cbMqTCXqpyKlPtgW4XZENneZgsB15xd0e6akr2fav8ASO4Sm979DSsRvKOmN8c5N69acRWog8tWvmDUuaN5U7PAWqTFBf0ms6aJ008cCVMUm5y/MYHY+hPVt6dMk/C8TO+pKPxabK3RbPr+f9vxLt1eeSWMnPWr2nnn6UfXSUPrIldzE51VJ/AlfTSc4OvTLvo/Fr6h1VVBY8cEoZuzf8g1KX5FeJsyzlyY6IMzv0bLjeWu3jVpxDgUPCBDXYm9uhb6B7fJIY3VXM+Ba7yjN6A8bv3CKk9yR6BbUn/w39+BV60iN5m5IHc83l7hyueAWSwV5V9g5w+UCceQ3Hotx0Ae3P2KopftcnEY27G9G5pKIraOcBJZL9UmvnWjtDS6/WzrV2rrXzvWvnb7l2HsK1xdJP1p4i/Ab7rF6ts2ud/RfDrnV2rbNrnX3vOntLetSf6H7IqbWGrjX0X4xGraFrDV1r6I3R0D8T//0M96jjHrWGTmqOWkPXGrrW0PepoSNxj1pD1xo6IZG1hq41dK2h70NDbyd9aMOudXSto6GlW+voWkfXOvqOdLSG6nXmXYp2tmrtXGfe1dq51s5LaecFJVehnevMu1o715l3tXautfMmaec6867W2UV1dp15V+vsWmffv86uM+9qDV1n3tUautbQm66h68y7WkPXmXe1hq419KZq6DrzrtbQdeZdraFrDb1pGrrOvKt1dJ15V+voWkfft47uQiukQURfyvcKMh29+IbHm1grVVtn61wVC1+ZccrXdT5IYttwYZsAZq2V6LplJPNZ7HnT7FJTYy/EOXlZbdG27G2OC6lwM+xdUk868PzenfCe4KfdGK+U5T2RV8Q1yZK81lBi539OXkPvRJ3FXRW3tR4wtz3j3BbV+qo/+tgQs24+Ybv5c27JGfvVeqJltfOf0ROts4z/rJ6ordyx9kTXoZ+fLvSpgd9SijztEjoa89fwipu/FmTdOtqpdXSto2sdvYE62kr475uqo3cW+jRTQz+Pachd4ir2fbyrWMxgSE91SXXRM37ALaGxHxm+IqVfwJgrLkGPoOfZNFN5K18TjmF0Z0JtmzTalDShS7wqNCGO+XzYQtB+ImKBrVuwH4KUT6B9XBP+B9ypAxQIiT5MNt4AJa5JPpBLf4f9G0k9lOj/k8/9iO68i39jV31sTAqO9tbDH3kUrcIl27G1oaJuldY8j/42fW21BXQEFEHSvie6IqUF/fHYmDhgIiWyRbYzJE5BGZ8XtmduaTvSUKRgGatQXFuneTn52tq9A17U800VDtyJXWmVUU3Vv8jjRI97WiH5WOiJNWFzoX11TqyjmuuwkTpuifPeDvRxAn79J8JsN8ItjOu+iq690XBaHq9MgD88oDnqrDb56sgzE+AF1X9vSX5EnkJumsD/6FO078RqrYcOcfzKYf83eMpr6Rtz7WX8XdW/KX5KPm0cQBnRHZN0MultA/ZWTI6xfgJXMcnrMDkdkYYe0ewuaPMC+pBE4g0h/QHwey+tUHJkEihoFTlrPbxQjp7leOUFjBrwO79/B1nH8eAnuhrijNdeDYdMJIfYG8ch24DpJ2qfT91vyDcsz0svoF0S2yJn7sC9ruguclygPJU+krIePizCK+W47wnUf6KIxC6M5oW39rGSvTCB56bQBjUSsxcWIOBq7IV9r/ZiCzgIUX0Hf9/AtX4xxikj+u1Yy7HBvnGXlj8TbfuLIb7krm+t9mEaidBYCs9/JB69pljAG+MtlwC1P38le+1lnstGDLreJeVFf0/1TN1dn5FOYRq7TG+fas+L0kd31nPtWUX6uRM5UyAT5wY1cqXv34J2+v6lYZn/ZOlnlruneDqVg9XYvv6sLEzSz5mmxhz1uKe3f6Zpn8fBTzXnZD/9umaN9fq1nJbeip5b2SeIa2hbamiv1tC1hq41dK2h/yU1tE63ltXO+4TvLT3PakZsUzliczZwxEa8QFf6YFzSCPjj/LAPgB32R7ezVyf7+LXk16yYL47ZnseO4o954prAwyu95hPBTyu96s6Cs1d63XVxd5I3y3H39uII1LLeXSX4+2vo4280X4k9/iw1X3L+91HqvL1uLqCIVzOhOKXPfRScSbMpozIe00ZZ8mN5BjT/SjmX08TsymLmFCMEk1SdtEz0e13zFjp6xWn+CK6P72eaSip/w2NZ4l1Nu9xn3YOzf8MYdAWNhrrJgb9IH5/8zQBKl2Y7o/6mR/MLxTJAHlIEOR/TPKpsU4/e83wmltlRJTYTUpaNSfQICfWQ5pcX8z4mUQIl4X49/3XJhA7HOPpfyvkhhv1ivwreFtSF5HG5MhYmrPomjbTWg/cCu2yMn1HOHuYcYAx1V9QuMcJF3B2aq3NJ49h0fdQ4Ls2PeGQfEF2kjgd1bfK8kBIhIR/cCe7fEZLiyYXni1f+Xyh94ypmR79ALomd/23q+cmY9hfwhHfhSWdTM5sTvjEO4axPFNG/pBngVXBDNN5hyniHs3FS+G8Ua4g+fZSigtKfZAbEt9DHH0ifp2+NO7FweVTLpvqWbL1LFLzWrIUoq23tfzltq0MxG/cd42cD31XxbgVS1ubrljAzoCHHqDahj2uaxpTnhmPTBnnpYyin5HdPyDd0yN+7C/S/gTbsqcvqyxfaM4tp6nVliaRRMM/iIg3FjOHy1PcAqxZ56w2i7PfUnmWJuCSFIVlciyyrR5mQU+KAKdRhCz8x+lqXjn0XefIoHdNzHlUuSLtCMq+0fUcWN4uacU74mucSXVNW83u59jF+tDwHBKRTcTSBeY5sbMFy+pNji+afUPuqCBZB/Tlc5z3l5rOaXZnxWFUO4zbQ3WAb+DfStYtnf0MzLB9pxfdNwVUL32VcYxXeUtb1dfbCuxNpz+OaIpy3Ez+6lN+FOaE2/e/xDME2eQLNBM+JbNI/l+SnY6nGdc4oSow5QoIKe+T/7C5qKkv+lPA0KT93TBGdgJB2yAIHfLyDfz1akyRyz9HrmpLvhmPhu/G/fHrqN4CVeOpi8vSd9sxPvFRXbNxtTlY6LVV5ZKsO47nh4t0DR9TjD0utS8haN/9w3kqkZmX/edYZukrLh7POsJE4J3+dYVz2N3GdIY7V1Fn59a80VO/4kFYaPpzV4F+mrNjRa2HxDs8zuj76eskZzk1b711r4uqa2HvAmrj8iu9aE+vvqa5prXXx3erir6B/V+T7T4AqYjUM8hW72jU9BWKxG2tZbS3blNY6NmC0E5Bmwlm/RY5Ii8ZIGJtsG9EV2Ph/SG3vJkq5rnUj+ajG9VYga5LjK5Q6ETdxlHc1bJHEfc44C3sBZQFe+GpJqoc08+fy2EPA5yPakRUpbN29CXxxv+vu17WCcXPo+y1lXnzmXMfWSX+G3y7HHbPjD6Q3dkrPR/ZoidnfFtmiKVGTxaVbNEsRjUs3KPvIoZkI/Mv2sZzQsYdLfR2K1WkS9U1wnoHZqvuiTfuB6+MsNKvT6LkyGzSi3mC/70+GvAetQfMQjdPqO8rsuzRYLHgI/bnkv9CHRM8/Sq3Hi0y0NdOnCVRpUkZUkzKj8G+DfCGPLOLDpU8SwzhFnhD2U8pKxtGvyIYVq/T7NFa6Ifl7a7B3e+II55bkLXrvpP/xJflUQWRspo7H8+mH83NTigyENPbFGZQpnSHo55OH0iRpMvmbFmzuz7ShBnMuqryP425j5OWQxn+nQyDi/Gf6298b3c46+yeXszA0rabt+PNebK/TlxTfojmQN3A/5uVeSmr/O9RgjAelpA/H/+Dad4/G2ZdwlEmvTxH8yXzQPR/PzHln7+ySiuHlzJm25p3u8eXMmndOT6EDUMBh6MDwgBoNe1Q3PKKic0IHOz9SsX/GL3DQo/3BiBr1OqwY0MEzdnDYv5y1G/POqENHR+zqoyG7ySm7HiuO98Zwxhn2ypx3z63LWQsKGy/TPXeo6MFBGwqbFQ4W894Cs8c0b/xm8e4l6YeFiajYRWoNx6vH+txjT9nDztqwR8/VG3SpyWDA6o5Y8QqL+ehV53bGbvwIBoxM0b4HRvjxdvZTH9q0zPkRL0fDn+F6Jvw4hqcYHXcvZ81w4oYmss7oVW81F5ofvOrfznqnI3yE/RPqdP8E9hxgSWjOmZD9kyxJ/8SePcFN7IUt3MTelDaxN7ZxE3tBCzdZ18ZNnufiJvZa9E+e5+Em9pwGbvLuDm5ir2nhJq9J/8ReY4ybvIOJm9ib0D+x59M/2XKCm2xp4ib32riJPXogeQczwE1epY2bRNDCTT7RBDex5zm4iT3LwU3ujXETewSZfD66gcSMQFrg4uEmn8/BTfalgZu8exu3ObAESLbtQQkc4gKLjM4Yp5yjZO71T1gxRNbf29unvb0uFUNgpim07OIJh8ha5vwf/X9ezjwsh2z3nBV9PP+wd4zFP4bYxofygO2O8HL/GHZIvE76JFdnqDsPhyd47GR4gUWXFSdDksP94SmedrA/ROE8ez3EvZMh7R2NSL0cjZgZ7ZL5R5X+O5W0pGH+qkdtX51S/0cDuhycicWrLimmg94ruIAxPzt1b2fw53LWmFMRssJihakUUPawPSgRb04FuBNnQ5Nda2jx0ualQ+XB2T62G+2R3h31f8LiFT6INd/vXFCb/Q6J8X5nj45292ive3o7O+mNwpn5gzcfnffZj8ExP9I55z/m+68I4vnpGXTv9KxL15z3D89ouN03fHJGdsH5OT4lgvWPT1iBTf+LL4ZxKLjgkpvmU9ChxdPlxmT6x2TkW3wqH40+hs7RVWBBizFQCXo8Pz5hxH0NlD7Zew1G8sdDPHAxIJ474br6JzhxTPbWp5HE9fzkhCA6HVK70326TPeYGGD/BA3DAV5y/0c8fnCC95rPXx7DM79kjebzxP1Mfj+cs2BfcMB1cmxmfxK7o1nojsenh/LAq/MeradjRXx1Hal0ywyZTnccptNbcZXeNoPpnP8em5OW+B3YPsaAR3v0hIWf8esFlkRszdNZJfGcHw66t7PD81f4TIfnr6kYwh4o8MPha1YKE0MGZ37YBY/0sEv3POz+GKk67B6h7Hdf4o3Oh2SRz4fE6/N+dx9uOyC/5eXglNnl/Ugx+CfoL9dxTNcBk6CAfdwNZzbYjSOUDQ8aHwzDWdOeD4YX5I4c7guTCGoNnrmQa7atc83u0gEzl3TAzAoOWO20rgmzJxwz5vr9RovycdItCxuXYTPNwMbUYhMEMWzMDGzAnyNsHLs0OpbL4PEZPD6Dp8XgaTF4WvNhHxRfMJ4Ph7xE18EGN2E45D+KAfiCA7hYR8reqB5tGQUTLkxo2l4Wmn4BNBVOy0JT4TR/tdJJEDYaGgiH/Q6rGbIyCuljDmmH5PHSCGRgjgEqJiJ3jYEwjLlSq8XSCt3Vyq0TVJRbv6zcpmG0wzE6ooDChIcH3q9LbkvYgRLYmOvB5nkCmyX5Z8WW8v4R2klIWGXuUWWrDP/cs2wJld4ldN4Sb4jllQyfSA2F8a55gkM2TvaG6iDnjnDqkrSNHyxO9spx2pI4faD0pruzYpk+QeBWFDWTQWMyaEwGjcmgMRk0ZkFonmtZ6IiHTT4/SGNvxd1Qj8HkMZh8BpPPYNI7mUmYnqXARBauvJTdu823MmTMYwh5DCFvKUZaWL6HqImyUMrSRDscpT14cvah0Wta/vFWGfPhxNQfBnsxbp5OcrQgUXUqSFabw2SPswZ+NMSrOvTTukg2g8pmULkMKpdB5bKRn2W340M/fBQat8CBMmA+5mAWYzVkggiMDbcIjoLZWm4JFCdLuplFMAQRKYThM47hPs2isrdSi3DDZ5m/xnDE+OtNDMPmhIHYFKEZveLPckTx1Ji82vn2sbInareKIdjh8YdOJbyEUzGguWrMh32vRa0VcNTaK7IE94hZWYyEbP4TJJblMkQRcj2GkDVWGEsE/UyGUZAlm6FfBCUS3QhODe564dnrYa6f8aY8NONYk4V8VuWzDk1oIZ99yA6cchAtp/Ag2jLd8qzmmQxCstOIYZgV1VoNiFX5T28bVAmdrlZA9a6afWcC+kQCxJb9BpTScyWXcsZiEIVYiiND8pjroVl2wOFBw1iQqRpTzlR4MgJEgdNidrMgUw2Al+zpFH50kgKZjVkVv01vLCn4nA5dYJeXR+m1eTaDjmFYDDtrWthkMh8DfthhCeiEFuuzFUL5U2Zx2Bir5amx0K3AccIScIkkGFfKcH1hAYbC7UVTwPxf8SMGLP0YcNVaHuJ9mf2QPXxXIUZ20ThyCsbNoDxrunz2w+cYOxN3LSDH7W1HzIVokNySSF7T1PiHyCtmhFvnG7/mRNBaDMA2A5B8jAiPmsvGiVyGHpNjfJoW91ZoXIf44VwWy1lLB9Dj0SLwP9n4tc0gbHAMGxzEBkeRYYY/xqEyo4Te8uCILH0xMB9LhfmWsk9/LcOQNGjNk/li7p9e5EnUkR3HKzcyxI4kzwLIQVT4mTqIIKro0nxEi412g/KAVhh0CDyT/FkAUMfWAdrgvMlZM40zpRJNwVEozB4lItxQTvyl8Zsi6ow73692Yqpg7MVcTUKCni0biSn3Dgdv2ElOsWeDJeJ7iyW1u3zJzq+UpJUVMAi0oSs7w7NeOI8VzMza0IvqwoWNEXharWkJPKMRZcQwHc0Uq1NGqC1vWiSEdcdwdkQEKxmAKYbdEefFxWfWVOxEsgd51GRjzJjNZn54wmZrh3nkXhYdHPtrxS4K1VccqnNNTkyHchp9YxJb15OESWUxXzveK2A2cGCVEYUJfIaSzT2bwFaGexM+ZGH+fo7pAG3JsGpxsFoMrYCnGgUcr6Cl2g/8MRA/kkkzA/lDeOP9ATc2uBiA+efD5OhRR4rv9GNGHshmLyXIm6ltVsyKKGR6uJcZ+ko4h/OsO465mK6OaRuunhAen5P0+KQklPHYP3OIBmS3h8MBt+N8H+25FTKkrTAX6CcyoHEHfO5MCvG5MjSXbJ4ZKktx313uvrsMWydg2FLpUEkszdhVy9KkbBFtTAhDlEO/OB9vS3jZaz7e0zLtAnZKxCHFVIvlT5edauGc6ynjo7iyRV9qSAnD6eAKxi0KrgDOCqW7SQDa+ey5HVHJxaTeryj1NJzJw85RsBNjIRH+IO8sMbK0CgSN8GiPK4MeUwaEHYn2HmM65E/C8ojcDJ2IP+UY/sReQsOjHdFPvZRx30POi2GcF0N/RXAua/b1UNq6YSXzN6PGS44m1RB5PoblBuh2SxvLJA80D0WMSpYcTzoikIne61Ljc0cHJKXFpiXOVoOxWN6MMpUvfdBiGQ8lgBTDSWl3yGwtFRLWZnHL6OZiYE5+vfgxOI+oTpOJvZKMLCIeA25aPhjvFDFnyVvZJsfR8acyfaj17R2zuKdE9EpK+djNj8VJe6PE4pBAhCv74bAfzFeCUSXzlfAH+aENkzlLZL4HAmOmSothKub6e/SudQ2i+DARGyT0ZhkPKXOtAWGoi3HqbTjH1NFhGrT0zmebD5raPIjUbjD7Q3ZIhIw6C5dThJCUkWg+Y76mcXu2/YkrzkKzGYVwjHPmWJtQqHjwWvuT5gilBYnjoXYOG5nxwvAtHEr2ZQJ6G1wmiF7V+dkSKpMNfyIOUYkJSABaK914vMeP99hxyYmkLJtcVzaZgAuOJPk+YqOkYpiKMRB7Hx++owBHQZc6VC2Pi3gjLuJ+Cc+oocXV1OJKIeEq6VDCosdXE9ncpFPpUMl0YYPbF9UXEmlk+FLy98bic/TCP3/EoXOMboX53GaR9LEioUwn7gLF0QIG0YzFi40X7ZbGLT9iJrsMTi+k6biipJ6yoSV9LLhQ+p3Az9KOuSduLLbka11xa1p8UKgaFC2CwjAPZIAoaYeLQtpn736gcOeaIU1MmzlaTNuteLwu1LKlfqyoTPMEerbUWWl1YeAiUseVYzRSxNCHB2x6zAA1yoEvzBB7gedVgXU4ltbLLMfCXvGAnMLA7XxjLqbUFI25IgWwvVCUwKfiXZnrBkwr83HAAq1bLiQ+7kJad6oz/8YhY682Cmh9zkf+aU3xAi4p/OVFnWVuFEVSK+lx66MgSePwpJyXMj8Oj2U4PGEeSpJzPkUeVaV97pzHho/kK0UCxa14nDglZzyNIDvST3rL3vxEb49SM3hV8BtVA3JW8YkjOWR3GuXn0sWQPW/h9ZEIdhwlgx150D2VEaMPNCB/Sx9S/pi7Zt1a3SKPLNZtafMrMXAV4Vy7TCw4TQmwkc+wvKf5LILgHxR126XQUmkMKc2txCoQiaOb769Xfp0EOuQFeJCiRUFTk8ZB08J0QPwQgt7nw0x8RDYHFxl30hzGvHfSvZ1t3MvCetGxG+sQX/CL416lS9Gai9Saal2yWZegOJQ9egH9CeQLKCbcIN1E3qfwUYp+wKcwrvg7c36Sr6voHb4E4PGVRnjxY/h9iO8lgt/7kfeMRaosUcXfv4J1r7HOXP46VsVLiCrYJ+jmMdI94aTbp4VIAb1yPUm+yEdlFfJFa6qRz2Hkc2ryVSDfM06+AX9zI/sKYpyIzySpdG0uCrSpRlifEdavCVuBsNtSLjHohfY0OlgJIwExUXeRUVeNgC4joFsTcAnJFF8R+UAOE4dNkUx9m4sCbZZSuZZVU7YCZRful08vAFtkMYc89i+OX6Qcr0Y1j1HNq4m2BNH65G4GkYXWIQ9TiuMXKcerEa3JiNasibYE0Xrsa0oSFkGcxfGLlOPViNZiRGvVRKtAtKecaAd8AetvpPSi/stTTiZdi4vcFtVI2mYkbdckrUDSrzlJOzSj/VGmCoRy1c61lEH1aDVyBYxcQU2uCuTakoNClBz2bjF1PL+oUcfzi5pqpJsw0k1q0i1h8X4y2Au+VYu3OH6Rcrwa0aaMaNOaaEuM1fuLqW05KNiWfmS07iKjrhoBQ0bAMNaxHclN+PbxLlHkLc28ixkjwT1q/UVOfbVOWjx6jGXXigDb69qxPSe258b2RowAhxQUr7m1ELdWwukZxwlrxvQ+khta4HNF3yRdINXQd89p4WNEqn6wW4tau+0347Wut6gdN9RzG1mnNjNOtdQeqQR6eN2/Z754EZEf4ATjNc00s+/8JrnDiT3qoi9j0/b9OA4ShnASQnW8sq2eqdJxnTe6Z8S/4Ygf0Kw+TbtSitoh5ZfCWXnSaJtOEO9ilJ2tcbtpjdPY2Zq6Iezp2bnhTwPTSmPn5IUttUeFpHGju78hvCGkcUALMSMymSaLsh9t0Dp2moCEWYZKS8F13eSecd7iOA/pnW/s4zs5Utd22vDcaWzr2rilse3YGztjK41t6V8a206muGmx4N+RKiZ1G939e+aGJ5IbfuMzpvj+znd5HJHkdIA0Wqn6DW7Eb/AznAr8P17ZWlxWrbTU7hRih83t+z3zwjbnhchbwKAulxOSMrAQLmTzBJxSQhoNNkTQ4oknNsM04WI3TgG0Cf8VZoYN7v6G8AOzxEmPWNutDBsobKdKmCWusyG2dJ++QvqbYktdrTFqug1LceMd+dDjSStQfLyWrG0E9tTSM800nIyDSRLa++nCPVNFxEVkNGQRIcnnXlWkdZ0rwr1FrnPPOD3nOGHi+wfKsb4xzvnrI37Jl3S7bfr4zUq9DtO61EtcZ0OwYrpQjlfz4gTp2iwybEh6DrHe62I967rJCuPKB73u7Szy/eyn5F++MY4p8RpH//K79XIebioXr/nGTeIr2S/EehZ6zQnOyt1QLPcjz/ML5Dei/5L4evaQ1hJM6GxJXd76a+M/6SvYfIudub3oJegTXFB3Y7xN/Ur3Nt0H73FujI3/YR51zleytyJ3GBmf0YqkPkXeN8CbVNug733jZz+/h9+ACv1i3wDHj/+14FiTvgGOm0ctm/DXghrcmyt3PaKRItOkOuzCxaY8maCXipz6ZFuA2xXZ0GkOBtuRV9ztkZ5afIf8r/AEjuEpve/Q0rEbyjpjfHOTevWnEVqIPLVr5g1LmjeVOzyV343H13TQOmnigStjknKXYl9V/5KPxabK3RbPr+f9vxLt1eeSWMnPWr2nnn6UfXSUPrIldzE51VIfvzevk5wdemXeR+PX1DuqqCx44JQydm/4B6Uuya8SZ1nKkx0RZ3bo2XC9tdrHrTiH4gdzE9Rgb26HvoHu8UlidFcx41vsKs/oDRi/c4uQ3pPoFdSe/Df041foSY/kbUoezDWXu3O44hVIBntV2TvA5QNx5jUci3LTBbQ/Y6um+F2fRDTubkTnkoquoJ0HlEj2S62da+0MLb1aO9faudbO966dv+XaeQjXFks/WXuK8Bvss3q1zq519l8Mu9bZtc6udfa96+wt6VF/ovshp9YautbQfzEatYauNXStoTdGQ/9M/Pcz3KOOe9QaOqk5ag1da+haQ9+nho7EPWoNXWvohETWGrrW0LWGvg8NvZ30oQ271tG1joaWbq2jax1d6+g70tEaqteZdyna2aq1c515V2vnWjsvpZ0XlFyFdq4z72rtXGfe1dq51s6bpJ3rzLtaZxfV2XXmXa2za519/zq7zryrNXSdeVdr6FpDb7qGrjPvag1dZ97VGrrW0JuqoevMu1pD15l3tYauNfSmaeg6867W0XXmXa2jax193zq6C62QBhF9Kd8ryHT04hseb2KtVG2drXNVLHxlxilf1/kgiW3DhW0CmLVWouuWkcxnsedNs0tNjb0Q5+RltUXbsrc5LqTCzbB3ST3pwPN7d8J7gp92Y7xSlvdEXhHXJEvyWkOJnf85eQ29E3UWd1Xc1nrA3PaMc1tU66v+6GNDzLr5hO3mz7klZ+xX64mW1c5/Rk+0zjL+s3qitnLH2hNdh35+utCnBn5LKfK0S+hozF/DK27+WpB162in1tG1jq519AbqaCvhv2+qjt5Z6NNMDf08piF3iavY9/GuYjGDIT3VJdVFz/gBt4TGfmT4ipR+AWOuuAQ9gp5n00zlrXxNOIbRnQm1bdJoU9KELvGq0IQ45vNhC0H7iYgFtm7BfghSPoH2cU34H3CnDlAgJPow2XgDlLgm+UAu/R32byT1UKL/Tz73I7rzLv6NXfWxMSk42lsPf+RRtAqXbMfWhoq6VVrzPPrb9LXVFtARUARJ+57oipQW9MdjY+KAiZTIFtnOkDgFZXxe2J65pe1IQ5GCZaxCcW2d5uXka2v3DnhRzzdVOHAndqVVRjVV/yKPEz3uaYXkY6En1oTNhfbVObGOaq7DRuq4Jc57O9DHCfj1nwiz3Qi3MK77Krr2RsNpebwyAf7wgOaos9rkqyPPTIAXVP+9JfkReQq5aQL/o0/RvhOrtR46xPErh/3f4CmvpW/MtZfxd1X/pvgp+bRxAGVEd0zSyaS3DdhbMTnG+glcxSSvw+R0RBp6RLO7oM0L6EMSiTeE9AfA7720QsmRSaCgVeSs9fBCOXqW45UXMGrA7/z+HWQdx4Of6GqIM157NRwykRxibxyHbAOmn6h9PnW/Id+wPC+9gHZJbIucuQP3uqK7yHGB8lT6SMp6+LAIr5TjvidQ/4kiErswmhfe2sdK9sIEnptCG9RIzF5YgICrsRf2vdqLLeAgRPUd/H0D1/rFGKeM6LdjLccG+8ZdWv5MtO0vhviSu7612odpJEJjKTz/kXj0mmIBb4y3XALU/vyV7LWXeS4bMeh6l5QX/T3VM3V3fUY6hWnsMr19qj0vSh/dWc+1ZxXp507kTIFMnBvUyJW+fwva6fuXhmX+k6WfWe6e4ulUDlZj+/qzsjBJP2eaGnPU457e/pmmfR4HP9Wck/3065o11uvXclp6K3puZZ8grqFtqaG9WkPXGrrW0LWG/pfU0DrdWlY77xO+t/Q8qxmxTeWIzdnAERvxAl3pg3FJI+CP88M+AHbYH93OXp3s49eSX7Nivjhmex47ij/miWsCD6/0mk8EP630qjsLzl7pddfF3UneLMfd24sjUMt6d5Xg76+hj7/RfCX2+LPUfMn530ep8/a6uYAiXs2E4pQ+91FwJs2mjMp4TBtlyY/lGdD8K+VcThOzK4uZU4wQTFJ10jLR73XNW+joFaf5I7g+vp9pKqn8DY9liXc17XKfdQ/O/g1j0BU0GuomB/4ifXzyNwMoXZrtjPqbHs0vFMsAeUgR5HxM86iyTT16z/OZWGZHldhMSFk2JtEjJNRDml9ezPuYRAmUhPv1/NclEzoc4+h/KeeHGPaL/Sp4W1AXksflyliYsOqbNNJaD94L7LIxfkY5e5hzgDHUXVG7xAgXcXdors4ljWPT9VHjuDQ/4pF9QHSROh7UtcnzQkqEhHxwJ7h/R0iKJxeeL175f6H0jauYHf0CuSR2/rep5ydj2l/AE96FJ51NzWxO+MY4hLM+UUT/kmaAV8EN0XiHKeMdzsZJ4b9RrCH69FGKCkp/khkQ30IffyB9nr417sTC5VEtm+pbsvUuUfBasxairLa1/+W0rQ7FbNx3jJ8NfFfFuxVIWZuvW8LMgIYco9qEPq5pGlOeG45NG+Slj6Gckt89Id/QIX/vLtD/Btqwpy6rL19ozyymqdeVJZJGwTyLizQUM4bLU98DrFrkrTeIst9Te5Yl4pIUhmRxLbKsHmVCTokDplCHLfzE6GtdOvZd5MmjdEzPeVS5IO0KybzS9h1Z3Cxqxjnha55LdE1Zze/l2sf40fIcEJBOxdEE5jmysQXL6U+OLZp/Qu2rIlgE9edwnfeUm89qdmXGY1U5jNtAd4Nt4N9I1y6e/Q3NsHykFd83BVctfJdxjVV4S1nX19kL706kPY9rinDeTvzoUn4X5oTa9L/HMwTb5Ak0Ezwnskn/XJKfjqUa1zmjKDHmCAkq7JH/s7uoqSz5U8LTpPzcMUV0AkLaIQsc8PEO/vVoTZLIPUeva0q+G46F78b/8ump3wBW4qmLydN32jM/8VJdsXG3OVnptFTlka06jOeGi3cPHFGPPyy1LiFr3fzDeSuRmpX951ln6CotH846w0binPx1hnHZ38R1hjhWU2fl17/SUL3jQ1pp+HBWg3+ZsmJHr4XFOzzP6Pro6yVnODdtvXetiatrYu8Ba+LyK75rTay/p7qmtdbFd6uLv4L+XZHvPwGqiNUwyFfsatf0FIjFbqxltbVsU1rr2IDRTkCaCWf9FjkiLRojYWyybURXYOP/IbW9myjlutaN5KMa11uBrEmOr1DqRNzEUd7VsEUS9znjLOwFlAV44aslqR7SzJ/LYw8Bn49oR1aksHX3JvDF/a67X9cKxs2h77eUefGZcx1bJ/0Zfrscd8yOP5De2Ck9H9mjJWZ/W2SLpkRNFpdu0SxFNC7doOwjh2Yi8C/bx3JCxx4u9XUoVqdJ1DfBeQZmq+6LNu0Hro+z0KxOo+fKbNCIeoP9vj8Z8h60Bs1DNE6r7yiz79JgseAh9OeS/0IfEj3/KLUeLzLR1kyfJlClSRlRTcqMwr8N8oU8sogPlz5JDOMUeULYTykrGUe/IhtWrNLv01jphuTvrcHe7YkjnFuSt+i9k/7Hl+RTBZGxmToez6cfzs9NKTIQ0tgXZ1CmdIagn08eSpOkyeRvWrC5P9OGGsy5qPI+jruNkZdDGv/190a3s87+yeUsDE2raTv+vBfb6/Qllbdo3uMN3IN5tpeSwv8ONRjXQcnow/E/uMbdo7H1JRxlEutT1H4yH3TPxzNz3tk7u6RieDlzpq15p3t8ObPmndNT6AAUcBg6MDygRsMe1Q2PqOic0MHOj1Tsn/ELHPRofzCiRr0OKwZ08IwdHPYvZ+3GvDPq0NERu/poyG5yyq7HiuO9MZxxhr0y591z63LWgsLGy3TPHSp6cNCGwmaFg8W8t8DsMc0Vv1m8b0n6XmEiEnaRWsPx6rE+99hT9rCzNuzRc/UGXWoyGLC6I1a8wmI+etW5nbEbP4JBIlOu7+enwx9vZz/1oU3LnB/xcjT8Ga5nwo9jeIrRcfdy1gwnbmgiu4xe9VZzofnBq/7trHc6wkfYP6FO909gzwGWhOacCdk/yZL0T+zZE9zEXtjCTexNaRN7Yxs3sRe0cJN1bdzkeS5uYq9F/+R5Hm5iz2ngJu/u4Cb2mhZu8pr0T+w1xrjJO5i4ib0J/RN7Pv2TLSe4yZYmbnKvjZvYoweSdzAD3ORV2rhJBC3c5BNNcBN7noOb2LMc3OTeGDexR5DJ56MbSMwIpAUuHm7y+RzcZF8auMm7t3ED9XQCkm17UAKHuMAiozPGKecomXv9E1YMkfX39vZpb69LxRCYaQotu3jCIbKWOf9H/5+XMw/LIds9Z0Ufzz/sHWPxjyG28aE8YLsjvNw/hh0Sr5M+ydUZsOj8cHiCx06GF1h0WXEyJDncH57iaQf7QxTOs9dD3DsZ0t7RiNTL0YiZzi6ZfFTjv1NJyxjmr3rU9tUp9X80oMvBmVi86pJiOui9ggsY87NT93YGfy5njTkVISssVphKAWUP24MS8eZUgAtxNjTZtYYWL21eOlQenO1ju9Ee6d1R/ycsXuGDWPP9zgW12e+QGO939uhod4/2uqe3s5PeKJyZP3jz0Xmf/Rgc8yOdc/5jvv+KIJ6fnkH3Ts+6dM15//CMhth9wycHZBccnuNTIlj/+IQV2PS/+II9FhwfcyPfgs2ngIRH9XisyRPoppQW2aBQxIRcAEypcIFK0OP5yWsg8cnea7COPx7ibS4GjNp8wUjHYJ9PwEVqbFp9Mj85IXROGV+c7lPRPSba75+gTTjAi+7/iMcPTuA2x6eH8sCr8x4tZmNFfGkb6VbLDJlydRymXFtx3do2g+mc/x6bk5b4Hdg+BmBHe/BY+O/lMQD8knVrPk99xq/BcfBpSHRNqGuezsp+uvx7WfxeW+D+INV2F/eM3c8qhGbifvPDLjiTh90jlNbuS2xxPiQbej4k7pz/fzS29Un8o9XAAAAAvm1rQlN4nF1Oyw6CMBDszd/wEwCD4BHKw4atGqgRvIGxCVdNmpjN/rstIAfnMpOZnc3IKjVY1HxEn1rgGj3qZrqJTGMQ7ukolEY/CqjOG42Om+toD9LStvQCgg4MQtIZTKtysPG1Bkdwkm9kGwasZx/2ZC+2ZT7JZgo52BLPXZNXzshBGhSyXI32XEybZvpbeGntbM+joxP9g1RzHzH2SAn7UYlsxEgfgtinRYfR0P90H+z2qw7jkChTiUFa8AWnpl9ZIO0EWAAACrVta0JU+s7K/gB/V7oAAAAAAAAAAAAAAAAAAAAAAAAAAAAAAAAAAAAAAAAAAAAAAAAAAAAAAAAAAAAAAAAAAAAAAAAAAAAAAAAAAAAAAAAAAHic7Z2Nkds4DEZTSBpJISkkjaSQFJJGUkhukJt38+4LSMlZrx3beDOe1eqHpAgSogCQ+vlzGIZhGIZhGIZhGIZheEm+f//+2+/Hjx//HbsnVY57l+HZ+fDhw2+/r1+//qr32r5n/Vc5qgzD+4G8z+L28Jb+ubu2jtVvJ3+uR1cNez5+/NjW1Ur+7v9sf/r06dffb9++/fzy5ct/+qL2F7Wv8ikqL87lGOeRTv1crtrPsdpv+ZN2nVtpWl/VsWHPSs6d/i86+X/+/PnXNvVP/y25lAyQOTJiP+dU/sgUmdf+bBf0a84lP7cT2gLlG/bs5F8y8viv6OTPMeRCf7UMkXO1FfdZ5Mc14D6+OoY+AMpjPTHs2cn/rP5P+XfvDOh55F5/qy0g19q2LP3MWMnfegDo+5WedcPQc035I9eSVV3rPkhf95jAefhZksd2uiHbifWM5V9txGkM/1J14v5ztB9dzVicbR+nX2f7KVlZ3ikP+m3mXdd5LJeyrG3aIHqGMcnqmmEYhmEYhmF4RRjH35NHsNen//NvL+9Z8t36Hlzqa7o29a54hMvo7WoHz+ZnSJ3wlva+u5b38538z9jxj3yGeZ73db7ELr2V/P+G/vMWXP70s2HPw6aOTSb9d+nbwxfka+kjnc+Q+iQ/zl35A03nb6SMXI/9yL4s2y/t39qll/K3H+JR20DK3342H3M/KX2Jziy5IBtsvuznnPQL2GdYICPsdgXnUee0D5P2Z7cd2gz3Qp6ZFvLu7NmZXsrfdfSo44Gu/wN1aL3gvm0/jn17XYzQLn7IfdB2X/f/SjvreOdvzGdK9uv0WV2S3rPrf0C26QMu7KspmeFvcX9Dlvy/kz993z5Ax/tYn8DO35jyJy38AOTTyf8ovVeRP8/2+puysbyL9MXbF+f63ukG9InbCbrFuhh2/saUv8/r5E+cypn0Uv6c1/nD/nbsW0s/W0F9pT8t/Xf27eW11G3R1ZH9fTxHyGPlS4SVvzF9iLyndeXxeOZMet6mHh5V/sMwDMMwDMNQY1vsm/w8Pr9nXD32gBljvx+2ffGzTb6LC70Vf8P8w2dnZ9Pq/ODWCegOx4Tn3MD0LUJe6/NrX2c/zPKgr0Y/nKOzqyD/ld3XdjB8fNiO0BvYfz3Hp0i/UMbu22fnc+y34y/HaB/YkfFJDcd0/dx+F9d7kfLn+m5ep32Btu9a5vgPunlEnuuX88/st/M16Ijp/+dYyX+l/1d28PSlp08dGyntIvuxYzDOHMt2WeCT2MULDP/nWvLvfH7guV8lL88FLM70f3BcgMvJuXnOsOda8i/Qyek7L3iGF9bhznP1/F/pBrc5P/8dq1DM3K813btc7Vu943l83tkCGMPn9cSNOJ3Uz934n2cA5Pu/y8qxTHvkPwzDMAzDMAznGF/gazO+wOeGPrSS4/gCnxvb3MYX+HrkGqvJ+AJfg538xxf4/FxT/uMLfDyuKf9ifIGPxcrnN77AYRiGYRiGYXhuLrWVdOuGHGF/Ej9sxPdeQ+OV3xF2a62s2L0jruD93H5l+5DuKf+0MzwzXtcH2xu2ucJr8KxkbPljf8Emt2pLK5uc5W9/ImXy+jwu48qeYJvB6l4oM3rM8s/26HUKn8GmbNsrNrv633a07ps8mYbXEMOvhw2+azdd/y9s02MbW2D9T9r2+dBufb3X5/KahKvvC5FHyt/rjrEGmtfEenSQEbhedt/kMil/PztXbcZy9TWd/B1v5GP2H7Of/kl67D/6vpiPkU/u93p494x7uSbYxyH7hWW5ei7+qfy7/Z380xfUxSLRr9HtpH/0DbndMfwU1vPkwfFHZ9f/7Xsr0o8Dt5J/1x5s+3c8Af09fUfdvezaRsaokF76KR/1nYG27HpJHXDkR7+V/Auv40vsAKzWnM57zXvZyd9lyO8L+5pHlX+RMTLpx9utr89xr6eZaXVtZheXkz6/Lr/V/t19rK7N6/Kcrn6eYew/DMMwDMMwDLCaW3W0v5sr8Df4U3ZxrMPv7ObWrfZ5zoXnCh29P96CkX+PfRi2oeWcGlj553ftxbaR2nbMP9/lsN+p8PdE8P+Bj/la25PwLXEvlj/fs/E9v+o8EcvMfraMm4cj/d/Z5q3/2ea7PrbT2UZr/4zbInH++HqwAXKtv1Hobwk5xsRypiz4iO6tp27NWVs7HO2nb+Y6ASl/QA+4LWDXpy3YN4v8KHvOG7Hfr5tT0u2n3fq7QK/CteXf9Z9L5O85H+ju/Nagv8m4k38+DzqfbsEz6RXnCl9b/18qf+ttdLBjbezDQz7kcaT/U/60jUyT+BDHCDyyP+cSPG6ij9GvbiH/wj499+fdPPK8Nsd/O/njx6v0c/z36P7cYRiGYRiGYRiGe+B4y4yZXMV/3ord++pwHXjntj8w14u8FyP/NZ7f4Ph65sfRj5mDY79dprOyoXgOXvrqbIfyvKCVD9DHKBPXZvmx/zp+H5+my9PZo14BbKBpD8Vu5zUaOa+zqReeV8fPfrdcOxTbP3b+bo6X7bv255I2Zcxypd/R/b/zVWJTfnb5p/6jXrn3VQxPN08o6Xw7K/lTz+lH9Pw0fD/YZu0ftP/Q97YqP8dyjpf3V37PMs9vxU7+ltmfyn+l/1P+Of/XfmSOYavnmOfy7taH3MnfbRRIizb27G3AWP9b/91K/oX9kH7Ocy7jEtoDeZzR/5BtgzTZtk/c7e8VfEIe/61k/J7y9/gv5/jZB5j+wWI1/tvJv8h5/t3471XkPwzDMAzDMAzDMAzDMAzDMAzDMAzDMLwuxFAWl34PBB/+KtbOMUBHXOKfv+TcS8rw3hDfcktY/5i1czJ/4rEo36Xy57qOSuvstxa6OJSOjCc+4pJYQOKWvA7OUaz7Uf0aYqPg2nH0jp3yd3iJC+xi9ymTv+vuuF/KS3yVj5F2zhcg3twx547VTbw2EGsIZZ9lLTLHm+/6NfmfOZfzHT9LXo5FuqR+iTnyz7FR77GuWa7XRrk4lut/EQ9OP+V+Ozo9SjyX79vf/qEt7HQA8brEknlOQd4bx+lnu/5D/o4JXOH7Tv3iWMpL6pdzKSfpXkv/Z1x+4ucyfZs27X3Us7+34e8puR7cbl1Pu/ty3h1eG8z3s2qHfoYit+57H3DmueL5Mjl3gDaUHNUv0C4cn3otdu06+yv9x/+j87JNe95Xlx79j/tKWbmvWvetyuq1omAlt4wN7dKkbDmPhbwS55XtnraZHNWvzyNPz1V6K+jBVf8/O+79E/lzjufcZJp+Hnbx4E63m4dEnec3Ki5Z56sbK3Y603llO/T4OMt9pn7p/918hbeyK8OR3oVO/jl/o+DdwH2Ve0LGniN0Bq/pmNd47pDj1a1zj1jJv2uvjFOsH1btm/wv1ee7dUo9b+oMR/2/8DyL1btMJ/+jsvNMrPI6D+REXbI23GqsZp2Z8mdMmOsEep0vryvYvVt7jpnfHbpy8N1D9E2uWddxpn7h6Fu7HHuPeYu8o67yzXkaCWMFyHpBv6fe9Lv0kd470+5374SrsYDHOZesE3rJc3pXv5T7SK6c8+zzVodheDP/AKCC+iDgvyWjAAACy21rQlT6zsr+AH+QzgAAAAAAAAAAAAAAAAAAAAAAAAAAAAAAAAAAAAAAAAAAAAAAAAAAAAAAAAAAAAAAAAAAAAAAAAAAAAAAAAAAAAAAAAAAeJzt3S1u40AYgOEcICywqKQsNCxXKAkKLiwKCC9MQHikwrLAsB6gUmBpTuPOZ9nW+HdX2gWr1QMeVZOxx/a8Lnax3++L3W43K4oiFK+vr8Xb21szvl6vMV9cLpdy/P39XY7Tcd1zGjF/v9/Luc/Pz3K+Or8rfi/iHkKcG3/P53Nv7Xr+5eWlmUvHlddK99RcK8b58fmzfHx8lPNfX1+D9xLXSuc14zg/e87Wsd1rVddrnZvf6+12663f3bd8T+t9qee663fXOp1OvePTPTbz6V7yzs3vs9kstMZPT0+tdeO36tqxd4PndNVNolGMD4fD4D7GvXbPrfatfNcG1m7tQQyrns21cvmzxJ7Eb2PvYswtFotmvFwuy9+qd7l17Pv7e+9aq9Wqe27r/6i7/tSzpf3qzac1R+/1+fm5d3y6x7HOk/3z6/xp/3qfxvoPPeff7J8/S/2upRaj/R8fH5tx6jm0Z6P91+v12LlN/3z9qWc7Ho+T71eMHx4emvFms9Fff/31119//fXXX3/99ddff/31119//fXXX3/99ddff/31119//fXXX3/99ddff/31119//fXXX3/99ddff/31119//fXXX3/99ddff/31119//fXXX3/99ddff/31119//fXXX3/99ddff/31119//fXX/x/rn4/rPtW3JsrvXvxO/9vtNvT+9K5ff5Mhl56lnItvZkzt0Xa7bfWvrzV2fHyvI4ZT33/Ij0/7W/429P2HoXctbzufzwf7/2rf6u+mDH0XI+/dXSu9e73j8++odNYHAAAAAAAAAAAAAAAAAAAAAAAAAAAAAAAAAAAAAAAAAAAAAAAAAPhf/QCoX+khsmpfsQAADtdta0JU+s7K/gB/koEAAAAAAAAAAAAAAAAAAAAAAAAAAAAAAAAAAAAAAAAAAAAAAAAAAAAAAAAAAAAAAAAAAAAAAAAAAAAAAAAAAAAAAAAAAHic7Z2NkRwpDIUdiBNxIA7EiTgQB+JEHMhe6eo+17tnSUDPz/5Yr2pqZ7tpEBII0IOel5fBYDAYDAaDwWAwGAwGg8HgP/z69evl58+ff3ziOveq5+JzpawAZfj3wf9R6fmK/jN8//795dOnT3984jr3Mnz58uXfzy6+ffv2O++wN2UE9PtHRtT7tJ6Vnk/1vwI20f6u9l/1Ufp2laaT1+3f+Z1dVPKs5ARdGr1epcuuZ+28ez5wauereuvsH+Vr33W5tG97HpoPeQWq/q95ZfWO+58/f/73e+gt0v348eP3vXiGuqgvC0Q6vR7pM0T+nibyiLy5F2WrXkgX1/V56qBpIy9PRx30evyNz6r/x9+vX7/+fu4KOvtzTWXR8iNNlM8zWZ8jPfcy+7sMUZ7bCJvH39CZponvjFtccz1FGp3zOLR9RT6kRxfIqelU7vigC9qyyh3XVB+qZy2f8X3X/vrMFaz8f1Zm1v/pf528gcz+6m+oU1Z37Bx6Vn3RLuKDL9A+qH6BPFZydrpAPsohP/cVVZ39+ZDPy98Z/+8xF7jF/ug8+iP17uSl/pX9fR3iwLbYPf5GWyB//vd+hqz0UdqLQvOhTpku8LcuK+2RuV5lf2TU5738TG8rW1zFLfanHWu77+QNZPZXf4fvzfoofd39j+o27nHd/SS+I7M/etA2lulC06nNaRfI7/bHP/JM/OUZzTeuIeMz7E9fUX3QnwF19e/qbxnfHJoemelb+j2epQ90a6XIi/v4TcD/kcbvISd9LwP1xodkutByMvnJX8dD+of/77Ko/DqXqfTpuh0MBoPBYDAYDDo495fdf83yb8E9uIQrOC3zNH3F257CY+XEpVjPZHGBe2JV/urZFZ/WcZiPwqnOrui44m3vIavGtqtnKs6q8h9VXHq3/Fv5tEdB5dY9E16nK3J18fx7tetMVuXV/P4J51WlPyn/Vj6t0pPzhs4p+h4F53iQhXycA1nprNKBxhW7Zx5pf/TjnFzFeWncXmPmVfrT8m/h0yo9EaMLwLPC8yHzyv7E7VQWlbPTWaUDtT9yZvJn/v/KHpoT+1ecl3PWyr1WHNlu+dT1Kp9W2R/uWPkj5RQ9/8xGyNz9f6oDz6uSf5crW6Eaq+BG9H7FeQVIq1xMl363/Fv5tM5P0oejjGgP9DWe3bW/jhme9lQHp/a/Fepv4BqUd698U2YXrvvcwdOflH8rn9bpKbO3zjsZF7TszEYB5RaztDs6eA3769jJx/fiKS+IT1POC3my61X6k/Jv4dMy3s5lA8opVmUzJ3eulOeRZ0dnmY4970r+rl6DwWAwGAwGg8EKxL6I+ZyCdSBrmFUsqksTc9sd/uce2JE1gG4eWeauLPcG52JYd3sMfwXiH6y/d9Ym3fr1mfsZM65R15SB+E6s8FFldtcfCY9dB6ivxre69q9nY0iv+sue5xnuab2d94p77pf0zEGmM57p9El/8ziGx2iz8nfyymTM0nXXd8vI9LiDVRxJ9+RX53GUg/A4re7V1+dJoz4HnSuXo/FA5eyUD3CZ9BxRxZ/h88hHY/5al6r8nfJcxqrM6vqOvMQbVcYTrOzfnbcEXczS+S/4Ou3/6MrPM2TnO8mrOmdCOchSnY3I9O98R1d+lZfu13cZqzKr6zvyZno8QcePkd+KZ+zsX+l/52wR+fqnyxd50P2Oz9L+nsXis/I9r52zhFWZ1fUdeTM9niAb/5Vb9DZf7fu52v8zXVX9X8vu7O8c9Kr/a95d/6/mf13/17KrMqvrO/Leav+Aji0+huGfdHzp+CuXaTX+q9xu/4Ce4avOn2e6Ws1ZfDz1MU55xax8RTf+a/qqzOr6jrz3sD/1rtb/ei9rm9zXPuQ8ms//PY3OkX1On83luxiBzoX5ngEZ/D7ldeVXea1krMqsrq/SZHocDAaDwWAwGAwq6NxcP1c4wEejksvXHx8Bz+ICWbv7HszVOoL90s9EFWer9mO+ZzyLC8z2MiuyuIDu2dX9/yfrV7UVsTa9nnFu2J97ngdy6HXnIne4PNJUa/TOLpke9FygcqSVvm7lG0/g++/VPlXsj5gTfmOHI1Q/o/Erruueefbve7xR+cIsjyxenXFGHS9Yxft2OLou1qlnE+HXM33tyLjiAk9Q+X/sjwx+biXjaFUH3kc0Dqfn+Chf+4VzbnxXfVRnJnheY+v0kyxG7f2Ftsf5FbDD0a24DvKr9LUr44oLPMHK/yMrfS/jVXc4Qs5SaF/Pyu/k0Xy7MzMhD22Wclw3VTmMberfKHvF0Z1wnZm+dmXc5QJ30Olb+6z6eK/rDkeo77XM+r+O313/37E/Zzv1LOdu39K9A9pvdzi6Xa6z0teV/q/P32J/9//I7uM/+sdPVum8Pfm4Wtlf887G/x37oyO/dmX8P+HodrnOTl9Xxv+ds44VqvW/ct5ZTIDr2m87jhD5sJ/OMbNnsjlwVl6VR7V+PplbX+HodrhOT7dT9x0ZnxUzGAwGg8FgMBi8f8Dn6NrvUbiSt75b4x7vvtfYwAl2ZX9PXBRrXjgA1pSPqAN2PAHrWmJ6uq+y2wdcAY7hFBpP7HCljq8FYha+biR+FvB9rL4Ox2/oepUzGPHRmA1tS+ML6KvjdlXGzv5dXrtptE66D97luFcdQfa7I7T3eI7rlKvpApHmat/KdMT17BwLcQuNszoHo7/PRT3QDXol1oXfcfkpQ2Px1VkBtUXF0e2kcZm0rsp5Ukf9LaErdQwoD0tcD/torFDTESel3Cpe2KGyv16v7K/xcdo9bRI9eXxL8/L4dsWrZfyJ21z9mHLIip00AbWfxx89jpvxe1fquPrdMdL7+wSdOz3dt+XyeBza6xNw+ztvQD76m5TImOkGVFzUjv0rHkOxkwY9Ku+Zyat8mL9H8EodT7hDyuUDV135lhV4jjEus5nvtaAPOV9Fn9CxqeINvf1W/XHH/gH1f8rjKXbSKOeo46DKkX3P7L9bR+UE8fkdd6icn+7HugId2/Tjey3ig2/0vRzcUx1k15Vfy57vzteDyv74MuXUHTtpVCafdyrfznf6h7eZkzoG1Aa6p8fHZ9ettpNT/k+h4wdzzOzeao/d6rrvJVqNW35fy69k6daut6TxsiudnNbx9LnMd13Z/zcYDAaDwWAw+Lug6xhdz9xrHtntSYx1kL4rZadMXasS787Wgu8Bb0Fej+ew7js9R1Khsz+cAOl27K+xFtY7PPcW9HmCtyBvFo8kTu4xG+e0iD0636VQ7lbjFQGedZ+jPLTHIDwmq/y/6jNLq3kTQ6m4GC8X+TSWoxxyxylpPbX+Ki98zo5ekF3LUblO0J0xcY5HuQiNpXc+w7l75ZXhCzxGqvXz843OwVb+n3KyMr1u2d5sb//Yjdinx3yxbbZvm7YCJ+JxYuyt7aLTi8vucp1gZX/s6mVmsf8Vj+g2CjAHqGx6kp9zQd5fsryrGLDuD9J4N7HW7LejKu5VfY3urVKuJfMZK724v0OuE6z8v9tf5wm32p9+SVz9UfbXfrFrf/wGeanPI1+3/2pvB35EeVXlD8CuXqr6nmA1/6OecIy6B+UW+2u57odvtT86pBzVy679yUPHDrW57nfZyQd/rvyfy+s+P9NLds/lOkG2/vN9RTq3yM5fq24cK3vR/nX/wz3sr/O/6txyoLOb93HNk77Ms10+Pv/LZNF9GCu9+PzP5Rp8TLyF9eLg9TD2/7sx/P5gMBgM7oVs/beKZYC39K75jmc6ha7XuvG2ip2eYFfX9ywzy0/jP6u9kQFdl74FXDn7UIH41+5+zVuwo2tP/wj7V/lp7EdjFX7GKeMIHcQtPJ4Od6a8Lv2PM3HMfZUP455/J3aqdfB3JFaxkqxuGpPRduHyKLJysrrC/7iuNY7vMqm9iFM7V7iLyv9rjF/PS9HPlPOtOEIvB93BnWj56EXP1aAflyeLOep3P39LO9J4OvJ4G/C6BTyW7HxAtg/bY7PEz72uFYen+Vb64HnixhUHu2N/9/9A25aOUx53zThCBxyV8nGuw+7/XfujFz2P6TIH9GyPQtNlNlZ9Zfb3uYieravyUv0ot9jpw8vh3glW/t9lyvZaVByh64Q03fsf72F/ZKKtZTIH3pL9K27xWfbP5n/4QvWXuo8Cn1RxhK5T/H/X/wO7/g7flOk8m8Pv+H+tWybPPfx/Zv+OW3yG//cP9fdzsHruUOcpGUfo5ejZwap9e1rXhc4zq7OZbjfFav4XcPtX87/Od2bldPbvuEW/d8/531vHvdc7g/eFsf9gbD8YDAaDwWAwGAwGg8FgMBgMBoPBYPD34RF70dn79JHBfhP/rPa9s8fS32kRYG9M9nmEPnVvqcPfaVxxiexL83x9/wjvANIP+zeeyVN2dTnNR/ft8ansr79jwr4j9tnpPrcsz2pv8K3yd3v11Yb6HhCH1hvdsodM+wT5PattV+jq8sgydV+k9o2s/zjYr5bl6Z9qb54/u9obsmt/3stE+vjf37Gh9n9tvIb9/XcH1D70ww7sI66gfanbyxbX9bdFOqzsT9uhTzs8/6z/c538eZeb7qHUfZsB2pu+a4l9fvqM7rHVfLVNkobvJzgZQ1QX/q6hrG8rqFtXnvqCzPaMvfiGVZnkqe/vUZn1/XIn9ve97lznf60n55J0nFRZuM939IrMei5E86U9qNxXfNPJfnE9X6G+AHmqvk273PHn2dkBzcf3lq/kx49r/gF0p+9iUz0y5vt8pdKxz3m0TtpffU+v7mXX+ZTmkb3bj/bg/fB0TOCcUzafcWBD/+3Mahxm/bQzliPL6dywsz961TEL/+ntSO2v/l33mpPnif31XCLtV8vM3l3l86zK/vxPO74yJ0C+7ONAfnRHG878Orqr/Krne+XddYHK/uo3AW0xixXomVFd31BXnR9W5xsy+1OujuV6Xc+lep/Scx+d/ZHJ29cz0MVdducWke6q3N14d9Ke9N062pc+2nmKwWDwofEPiCRqout3vRYAAAR5bWtCVPrOyv4Af6I2AAAAAAAAAAAAAAAAAAAAAAAAAAAAAAAAAAAAAAAAAAAAAAAAAAAAAAAAAAAAAAAAAAAAAAAAAAAAAAAAAAAAAAAAAAB4nO2aiW3rMBAFXUgaSSEpJI2kkBSSRlKIPzb4YzxsSNmxZPiaBwx0kOKxy0Mitd8rpZRSSimllFJK/df39/f+6+trSoXfg7Iel0z7EulfU1Wf3W435fPzc//6+vpzfst1px5V1i1Vvn95eTnYY+v0r630//v7+y9Kdax6P6P/afvP4P+ZPj4+ftoAcwFto64rjHbBdYXVkfgVzr1ZmnXMOLO0+rN1ThnSP6RXUD7KMUpzpIpXaVb/5/yR/V91S/BFH/+Jz7iIL3KczPmjwohf4ppnS5VXXdexnpnNRVke8mNsyvMsW6afVJxZG0i7VL7P4P8Otpv5/+3t7fCOiH14pvfHTCN9QZsgvNLinPZH/J5WHcs3vJeRXvd9PpNp0p66si3nHPjo/p9p5v/sO32eTEr4sOxY7SbHVMpQ9zP9VN4jr/TfqB1n/67wSh8f1vlsDiAeZeT9J+89itb4P4XNmG/p5/lugO2xYfbr7Jv0vXw3GI0V+T6a/T/HkPRVliXLO6vvEo+irfyPL/Ft9rWeTn8v6ONJjrXZ92bzUdaD/Hp7yPE802TM6TbpZJlu+Tvor9rK/6WyUb4Dlm37e3v3Ne0k/cD7BGnRpnjmFP9nPMYk8iLNXr4lPer8r5RSSimlnlOX2ufNdO9lL/nWlOsgl7BhfRvNvmv699RftfZ5tT+sOdSayWzNeo3S/31tI7/zR9/8S2shrJv082soyznqR/zjMbu/lN7oepbXLK1RvybubM1pVua/iv2y3PsjX9Y88pz2wjO5zp5tJPdeOWcNl3s5JrB3sya82zrLmeuJdY/1Ztaa+rpShfc61r1MK21Xx/QZkFdeox6nxHol90mXve6lMp+j7pdsb6P+z1obtmY/vms09le83Mct6COs860JP1Yv7JdjXv+3IfchEHsZdcy1yrRVptnzGtm3/xNBnNH9kf9HZT5Hff4/xf8Zf/b+kHbinL0Zjvgz/8lYE35qvfqcl3sC+HpUp/RBt09ez/LKsNE+E/ezP3OdeY/KfK628H/fRymfUKY8LzHWMX4yltGe14afUi/CGDf4jwAb074Qc233fx9zco/ymP/5fyLzKPX73f+zMp+rY/7PuR079H6SdS318Sl9g7+Iyzy2Vfgxu2cYtuT9OudhxnDiYue0NXud+DP3KI+Vg39r8SFtJ23KntnI/6Myn/MuyH5b1il9R9/OumKP0VhF3Eyv59f92fvBmnDCluqVYdSDuaT7N+fy0TcYz/fnRnn1MNpA34tMGxM/856Vufe1S2hpvUA9vvS/UkoppZRSSimllFJKXU07EREREREREREREREREREREREREREREREREREREREREREREREREREREREREREREREREREREREREREREREREREREREREREREREREREREREREREREZE75B+Hl45q2TuOnAAAAVNta0JU+s7K/gB/pYUAAAAAAAAAAAAAAAAAAAAAAAAAAAAAAAAAAAAAAAAAAAAAAAAAAAAAAAAAAAAAAAAAAAAAAAAAAAAAAAAAAAAAAAAAAHic7dbhaYNgFIZRB3ERB3EQF3EQB3ERB7G8gQu3piH/ignngUObT/vrTWzOU5IkSZIkSZIkSZIkSZIkSZIkSR/RcRznvu9P5znLtXf3v7pP929d13Mcx3OapsfP7Bj9LPfUvXUWy7I8XscwDH++h3TvsmOVfbNhdq3N+z21f9U3v/6N7l+263tWOeuf5XqdffvG2b+6XtP9y3O+71//1+d5fto/1+z/fWXbeu7X79u2/frM9+e//b+v+h7X96v3QK7Vd/ucRdWfHddrkiRJkiRJkiRJ+vcGAAAAAAAAAAAAAAAAAAAAAAAAAAAAAAAAAAAAAAAAAAAAAAAAAAAAAAD4QD8K+ay4UtoqZgAAAsdta0JU+s7K/gB/sNgAAAAAAAAAAAAAAAAAAAAAAAAAAAAAAAAAAAAAAAAAAAAAAAAAAAAAAAAAAAAAAAAAAAAAAAAAAAAAAAAAAAAAAAAAAHic7d0xrtowAIBhDsDGyM7G+jauwMIRGJnewM4IA6dgY2TjAEiMrO801LZsKwmB92ilSlW/Sl+RGwcn/kPXDO7hz/F4vH9+fsbPQRzfbrc0DuI4/dtqtbpvNpv7er1On2Fcj51OpzQ/fD7ML+Lx8L3leJ339fX17VrxeJhX14rHD4dDPf/VtV0ul3R8v993107Hu/PD96b1rtdrGofPNC73EdcI6vw8bl1rz32mubvdrrVWPGe5XNZxXCvfS2svmnuz3W7rWmXdcI+vOpW9a11Lbly/czAYlHXv5/M5jQfxrzw/j1tKk7C3aRzu7+X8xnW27vkna5UeZa28j83zm1o943A+n/c2mUwmrflxz+Iw7EF93l59/3A4fDiez31YK1xD37mt31EcTqfT7l7U8cfHx8N6+Xf71r7nxq3+4fOP+jd+Y2/3D3vxVv/y7H7XP/7fFoeLxaK3Sdjrt/uPRqM6fzwe/3b/fO5D/9D4af/ZbPZ2/7x3+uuvv/7666+//vrrr7/++uuvv/7666+//vrrr7/++uuvv/7666+//vrrr7/++uuvv/7666+//vrrr7/++uuvv/7666+//vrrr7/++uuvv/7666+//vrrr7/++uuvv/7666+//vrrr7/++uuvv/7666+//n+1f9mL/6l/eebzey1+3D+/56L7/oin83v2Jb2f4ydr5WenrpXfm9E8v7d/ef9D2LfeJt358b0ZcZjfZVKfn2ff33etjfegtNbK7254unZZq/l8defk91W05HehvPW7y89a33UCAAAAAAAAAAAAAAAAAAAAAAAAAAAAAAAAAAAAAAAAAAAAAAAAAPzLfgEVd19ud+DNCwAAAVpta0JU+s7K/gB/wqIAAAAAAAAAAAAAAAAAAAAAAAAAAAAAAAAAAAAAAAAAAAAAAAAAAAAAAAAAAAAAAAAAAAAAAAAAAAAAAAAAAAAAAAAAAHic7d0xioNQFEDR7DdVdmBpimzE0lW4hazmz0Qy4DDpM+Ee4YCP/wrhiq3jcrmcxhgP43w+j8N8NJZleZyNdV33edu2V3t8lnH6vg73x/nX3jzP+/ntdvt5H9797Lyx//M7wGfTv03/Nv3b9G/Tv03/Nv3b9G/Tv03/Nv3b9G/Tv03/Nv3b9G/Tv03/Nv3b9G/Tv03/Nv3b9G/Tv03/Nv3b9G/Tv03/Nv3b9G/Tv03/Nv3b9G/Tv03/Nv3b9G/Tv03/Nv3b9G/Tv03/Nv3bXvUf9/v9z940TfvZ9XrdZ/9/AAAAAAAAAAAAAAAAAAAAAAAAAAAAAAAAAAAAAAAAAAAAAAAAAADgH/oCXAyaV+l1Ai0AACoXbWtCVPrOyv4Af9TwAAAAAQAAAAAAAAAAAAAAAAAAAAAAAAAAAAAAAAAAAAAAAAAAAAAAAAAAAAAAAAAAAAAAAAAAAAAAAAAAAAAAAAAAAAB4nO19K7jsKNb2kkgsEonEIpFIJBYZicQiI5FYJBIZiY2MjIyNLJl/Ufuc7p6e6fnU/9SIWnPpPlV71wmwLu+7LlTm5302ngDas5EtxtdGYIejwwJwXcUFawDfhX7D82Id4IEKEAG2ChvQniTBd92T2bGEwfHNfHP88UNvAJWb3UEr1XEztr5sTxUU4HidQOEo6TDwYbmvKz/3CRKg3FQspF+NA683gbhzXJ3b3s+YXkJsMSn8QxHzldIPDyvUa9so7kZ5TiI49ZZkUEPMXzkWyNI+TwYwJmyrNLiPSW0r/u7rbpB37ttHF49yxbD4jZngATxRqoNxCQ/RFAkrr5eyhUiTfQz6oa7BZaG3HX9xj7mufn6CWykuozVjg4k2LNb6uMXAwYJtDp4dBHVPoPjvqDlwXPjT/TwvGw8vP7z8t7hOxDoSnpNNwpsFcCm2FSAV9sScLRzVHjJwwCcPh3VLcWACvrTNX7fg2ubAH9UvuJn7Nvw0HTx+AIULtB43N1PqG4HH4U7d1UJR1+HW7fPrp6iUdU3g93uPjvs1yCUuQqZOyYoLGGs6GAlrm07AvG2BOdgP/OcCKqd1gVXFfDKohtklO9HvEYGbqx24XUbhYdeSKc8LqlJFJUhXYzBNZwPGPrv4KS90aWiTZpj11QnRuFiGPsrKHKgSy0XLxfLjKRWW1DwPLOk29nM0xeHAf9Y1m3rgYvA/pKJKH/Dg9lwbPBlPHE0lTyMoN+Q24DqnFj0Jnarq/dOLB1lBo/fCg0gNtqsIkEygczabzgNNg1jqyPlCY1idJseYSr0TdARluy7K9hL8qM8JMy4YamUolM8/1Dw/nS0x6SRwnU8BPQD9f3gUGhKMC//a/QkfXTxKdMKht1Znm5pgfEksPOS4lX3gRvMOUWpd0G8lW1Bh0f0BiDb9GFgSWb/NPOEXqj8QqFlvaACARp4X/DA2N+GBrR82Skbxl0db8IUFd3Ypms83Pywc5EB3jgqNBm5N4Mem3RNtzAXKaz4/9ejJTNpq7w+zFT2A3Q/aJXeDWohpekZUeAaBEPSEJBGBr2tQ9jibRbeQbfL4CWpBT5nx1Nf63oCrnhw+fv6ShuXc4NiGkboG6UI5+rXiCYYL1qQCOFWtq0scDkPDdrRqYusPTAvo5edDvALvgHmvBaEL5x6NO6RtF2oLUC7UBSCX+OPvRGvxFcLqd/6hVf9FwsKAM/TcqMGUkZWSOHjrVcCFSsr8uXMSj6MSiZ5chLMIDujJn44rOwZ9BwRzrRhGEOMdUSgeS0mt7vemWN2bhMaoCrkxC8v6/itLj/qo6GRYjB9dO0rEo47vYwiIeCSdp0TR17feDxCeohNYYGnXHiDsqOvREEBszI/7cm6wbSSBqMZe1znOhO96QkfPnqBRPRXGbmYQ5GuEROr2rGU7Cjyo/fgWYdP8Piy14qKem2rG72uHMEKfW3Ao9eIkvx0AuofHoJHb9sxw/TQMbssZy3FglFjGk/kJ+nbPtfboGNkuePVIboz7jW9yn0q+gM81rPHB4P9I4Bx1qYnx6uuHl48LZuCnFgzt19dh7BiVholbWhcZOj48x01ASqM58wL9AqziJNNxXRUBoQB9PUiFFgxrBND+M8bKGLrjr/npsrp0v1GTPX+CASwJN8bHBrXfu/3s6udzDcQ+kOOiM/i2797cNlum0WeVqJcMUkyN2I2qqPkRrT8XtygMjSZ33S43QyN+QnsIgl2v0wrX4pdV1FcCsgw3mdIxf2prfoJllGNHu79yFsvH+R/Q40TYLhsSPfTLS7Tc7usIxUDdV93HsU0SA/sw5YCQA+P77ejkvDDOXAba8nh/kPOuds9x305aogs+IwTGDYOEjOBCRZcJmaUplYK6JnnYQX105T9C++oLWextKMJXSXDhgcmx8oDxC7h8vTKXK+j94Fwyt/Yg7d4pkGzcOLfWdGwYBRzBQFouQr2Ao+8YBJVl8YWLjYNSU9/0gcaDbT5kmEmB6f5s/vTyJ04NYYZkxKJHM7kljYa8I6spP+i8zyQFAXMfHN8JA181PROy7Vkcx0JSIy1rInFHUC3QZRL+IudmrcEIwuEl1qktz5MzHjfq0OTMyDjUTTmZGYHPihmKLBus6ORfKm47SILB+sZFFkLGsYYd1mNsv374zu6x5w3LnVuDji9zYZ9nuEkVF0UIMuUsegPSMdoXdIEbOpJrTMbT587BBqHN7RzImQgP5aOLRynmHNR7EjfKb/DLxW5kqPik6Lfw4ZV7QHL1UJg+EMZrwneMa9e9vqELI7gPa1gXZnmREtZFx/eayEGpzULCOcJ1TRCw2940UD25XwTTbJKQxmdXj67Yh91OlRTVI5ZfbpmHR++kcANwCyxahR4S/1V1mzbIk/fDVqab07C45TBFS5E3Kny3/Rhdr3ud/Dc1Rlzp1La7+npR2BWgeiHhgscHCXUVSIA+7v/zpnVwmrLa9vVU2aO7bzNQKYj4tFvgXtU249ba8+NgIC2aZCYS4So9tiXEwMpmWZI8v16Sg9i3YF82najfyHxoHbjM6wUz2KE+gIQyIBlQuhD6cf/XNwcVz46zC/3VDvwsTnO+artGmT1CtYr8YAuo7YGzlUOn8vYEaY5VkikBUumQj0BMxd8G0q6Ei/+JHQK3x6dtYjwyE0ZIk1JxsLIcw7lGvR7l4/j3WBy6aY3kjrL1T22sR0H93RC39NJ9OrYqGr7LE3UMxGYF2DodQMqrUkiZLgPy2e+KsDbC8byxwzaOapDlAadj5kdPcE8tDRD6rTYdSBfS/frcyn9LnclK5ttVwM7sFjq6SseDvp2K/cl2PGd6juOM6ATxIPH/CDFGKnFtmS07kw1J8o0UADcNPwPeHuJP7ChZcg3ZZGXHCs/JRgbKFw3lmQnS+tGl/5ZyxdhIlhAfy8Fh7MfH26HopT4YxhAALKGVuK8z/4sbROxaCIu5RfHKxq4B0nFx8OzYN3AbgT+4g8iM3kusBpD3xSUOyKckgTsP4rw/Hv1RrHIYjTazcFADN2C8YZmGuOlePYQHhP3JUue2XxeG9ZmzKW2jhMc+wEQzIx7Cowy8XycN50n+wh3JrXUPzYtDwcotUo1uEGXjr4Szss/zH3NzlcDuTM/MPMitLxO14BtSKXxMdF8xu+nywTx19X1FCkTIemzC8SQUSNMRDivvTggdXxUy7L9zB2MB268t8nJIkVYuoBmzpYj0Gv/O1NaPJ4CR74yZhSh9C+BvCbLtOl3orKfbNqdGaGx3sYa8QIzSesZ7NrpQX5k/DAG2DUXrG9LdGNBos6L237mjg8N2ouZLqwwv+0LpIk3S/rJoO8DX8fH6F+cE0LGhb7/rKWdSAm0gwySsNb8sIJRFg3j8KD+qOhO2Z8BV67WFF0a8NJ6Z6sAgCejgFgjztd+5w0U0jIEGIZazcT8QbOSYB5D1Qa71DoifFll2tO5zOm1SHqooRwf/sFrfedpHcYQrdzARKU56+/bn4XWIWfQtxSaVp4/owCKiWRAJPSdJhv3OHYM48LfoGHu7mW2IG0wvfoS5jxmDwiH+j8f7/y7jQu+u4NjRzEE9qJ7457yxWZnLDHx6BPTwOmaJGyPCrH9vaLkyWGqB+Me8SXwx1thpMxNBKHz5p3YQZjHFAxOl1g1OS4CImkzAzasa2i6f69PrP9Jy2V3DcUJToF4jbxby/i5sgCUEegLi4oGLDa/E91nS435piOSUg1CuAIhxEB7rdSY3KIQFHPlVO0ICoZJsIHpG63jXjgazgaKLTZv3y/ILLHxQZgxW9dag9muCkSebTrr0YsyUL6EkRU6VuaoKSANB12ne+1ELPYJ1LR8vVOZRQUQ5k6Oo0mfV7Fft8OAlWVrvrlyAn9ph1KWk4zWQT61qcqgPy9Hxqfh1Ijnj1kLYenCDzKzWdmylrWw9C4MQjx4VybhZ7OjHeZ8V3L41dAP9habSEQvXbUWDgXqeK/yqHe9NG7G+iz6oTL9rxz2LcnIMNI0D+ezqp/wUL2f9D5pFwHIS/sB+UIYYpm5C31ugrlxnWxV7oauHkmcao+NZ2wN2Up9XJxuGhwp7RmWwbTHv3gGMewsC3Xe+BwNM/9U7kB03qCYkkef+ePpj2vjD0DCfC4GOnm7d9onz7SYR+tp1xUA1c0PoFEPVsW2c8R84SBiD42Vm8e+5xnQMks48UEpa//SOsECDj++Q+cjc/+gdobsWNJ1LfK6PI2AOF30XYZ9rEVJO4v+gJ5d+SVUhwmvyVwGAgUyMm1rX9USYBE5LlcGlBffMoVXjBgyjnM/E9/3dO7SaZ8wS70x+YShd5a/eIUJqdugo0Wbyx/Ufo7+59Fy380LlBX2SQXVI91KhpKARBs4CANVn6/eY7hpNH+4LqDw3hwxPi7c6yO3KW/dtNnXtdvaO3cc7M47mtT3I/O53Hemnd4xuHuj7r//4+o+XBKSkM3BL/s5NoqS2pYOoq3vzLgB0C64ioQPzbnSaGj8T4OuNZGnxsGLMQzaz8z2wykUJsxmgHq0e1Q6FLIClG9GuT8gKspz1MLlo/naHy0cXj5I7Hj267/VNViWlE/b3m8qqiHL8pwDA5MI0nUgYDR04cuTZ1AZL7I2AyXi67UEc9DrKMg3aEWXALqmsAdfdnzBOPGed6+SD+JkniKbK7s02o+mHJcHDR8wx1ta3bX3uoV5qrm7t0r3TU/0wDEN6AYvH7UxYhjP9nMhVg/aETTteBeL+XhV+WGOwvY6AAWEBGuh2A0dIBXUi4ecNMYrza07XS/1Ugj8siNnncoM97tyOhlh9NkNCEFc227sAkEbfF6hc7jOWbXs0IV05/+G7rdfcSjRu6RTYEzVK03OEd4LcXgyqRJ/3aKgPgo30jHr2gru2o9/9OP+V4BxQ65Rdl3qdF/DzujG2G3il4n4XAPy1SjgjY74lgc++E663Y0Z7ZPOXG93fAx26vW8d94hAd8UwiVFzUK/juRKaXxXMgc4gPwgzeUIyxJB7fL7/BTWzp7iHfcs+eHtxKGG/stvRgmGhPwWAjtD+UZMl8qfMbMGs9jT0gqTPgnhtV0nXhoBH7a+mQ+ga0vTsMRLqEpII2xJr11HW/YwzaUpoG9wsx/+A+uP6iRpLuppSiPfFxPCiFcTCyPbITwFg+sjnhcqyu4aPPCHzjVsQnrhOd9n0tmHE3Pi2olqAjsB4iVxSdHaaAdJeWkrt3WFcKAHKHshamVBFlo/r/+4gMYqa3qMFoWiO4Ped7HkGMPdTAJBMIch5Ds1RA1APzJ4Q7SNSQNOxJjSvYZ85EAInMskBnsSL4LZJFaxFxzhYyfhJctXECjSoE5YqeZ79Yh/Pf4vLvNMaLyOJDXiw3dHcO8YyUn4XAKqLAfXiGdbhTzfP7aJo75PVmFWO814Ip2sE9A27mqXjpyjkvqAspYifMhiH/Ncpz0MH9zoo2ZA7lxxRMz69/jThKfoliPnUYjbuF0I4Af1coBQfswBwtfWayeyrZTzquu1T6bkQkILY7Nor02pz8MRwjIS4CN8lPCYZdHszP4yjCKx8TgYpcDcRYpnUAn/u4+k/1GGkaeREE7VXbAh/khYBob3wiFiXnwLAWto+O3X4nSmka28DKSNX4cjNU5purmNSvXj0lHtbwHNYdjGkrDk1iRFfrBqsMEvpGPXBGIoRttWZN9o+ngBUcKE1h4u42bSkbBozpVP8Itid6kzuvYhYkOqF552rW+E1bfah+A4Mur9RAD0idX32kcZwz5gqeI1i9tWJuu7jl+MjaU0rs/lAu1ohkAn+t8+ufmrg0lmU3awVGJGhtNIkHj81ipWgbQZ06nWIXSCHJY5AjvfdhToONGg424O4mKG7dHXsFzPAO/oKzpFPpDFBL3KLvwS+mQUKG8YRz1IqNcDH+//L7GncJmojBFkeMjq6JFoIKGGtZOZA3z4negqeFAaE10wQrK+zrNsCF+uHtqm9NlqQ0cA4fGAbxjbdIgLljFgBMd9fgA96BScQDe5GLan3u9GP+z+w+lheAvILQTo/MQiiBzvYzGgvSxieVkIn9QcM/HZPbhIfGc8ERlPygrzJDPUGxqTqsO/M3lF7PWtoN5nAF03lr8B3WFH5cPxcdu/Nk85PL/+2LsX22vG5CvSNTjO3zUhLUvDJbIpLliKbcR0P8pQeiV5X3ASzaIG8MXd0+R7joAtoQAcCp6zRM/BlEh82/k58lpIXtsGpi0k7ee6P8z8fAzh0WwaDW+khkQv6pbUkLB/Orkytt2WWIo8FeqblJUnehkHqa9zMFxFS5GwhM3X6OODagXkT3+s/E1+eV8XpvSmDQWJD0vXp9U/5IXJ6v4RhoqQ1U7HNbtaXo7OIESPCFDz9NDN5j9w2IqoVoNJS/erR9N+DQ4GCUQTlvyY+uFuPvCMKQgBIzce933t2oWXgBddrT8PXVMlscSiPVUgD8M21aI8PDLvdlDgQuixAdLC19sjD1YJM23twCLQZlfwfiS/YKstMIo0UZF95DB/vf59rLDTuC0fMlv3RYkQ+LMHPLm9rEiL9RDuGfDeWWy4VHLVE1kPtF0GcnxHkI4lpx+bpbP/8r4nPn6FJ1qzQFvII4vPeH0S/cb1dK94YZUUJlfKWX6stLaCZg6YL2rBjqRybs+jngF74v6VM9BKYcbExfhHrEEOQ30OT/5T4nkOTOaGOCGdOjRHk8/3/+xqT9UjIBDhCFmto6uerSsGOI1qkLWD6VoFvp5lNy2EgOXIYERckABPu1boUA1otvGjza2jyHwofP0OTJLcJ+16W8XTEj/e/OWQokTgWUN2FXdq2mqPXd1sSogF3bBjpzzu1jGSV1G6X14b0b85Lq+iNZPkMSBqm3oQoRPqvha+foUlu/EnMIE3v4/xfKAD5gbwOGfAanJIY7vA1KTYSSC/29cxZzTGHuCCxUVLmjGsfLG7L1vtYSL2tBsqJ8A6Rg8rLPxQ+/xiaZGaTBAHnJjazf/z8vV5FfxVKlm2LEhSq6XTeyHulQ5e1m73MQ6wCY2C97tkwyoV2HjUdw8J4POSD81w5WQK33f9j4fvX0OR9MdowNiLXtCHWj/Of6znqZGw6J5YM+zFIIsE8SE62AiZdC8Q1z/aPNrY5xyEWSe0xOyKQyR747ll4Qc/XSy2XefV/bXxofx+aDGQcDaIiXfDP1//b67kIVbkuYWurZ2JidzI0rI2m/ZiDwGotuSBRDqrMwgBPZJYt1gTWwTpOihQJZEenl8ulTdn+pfHl+PehSQlW+Ec9s1f4fyEBcjbpm3fRSDPzsRi7FvvScCLxHdfbixcMAbmhgqMjZzYqeKU5H/CuhO9re0iQrjxXkKj2CO3cQhZR341P578PTVYEEfmFe0to9Z9ePMxGfxWJVw0dPOS1TMCGx/06dyR8sG9ZgJwtUV08E8qrzdoh4SHlnrn78EbPHnFAEH0zZqFS+CUdu5iNbxXEvw9NjqPQBnKvRPXy8f4PK8tOfOxZzVn8mY42/Wobl3IDMdExFWs0+PppJ1jJGfxmg1w63GWu3rz3INx+uVA5muXSMe3fjY+zCvYfhiY3jjhRoWFwZfXH8e+G6PaINSA5b3OmTdp5lwn1SwQt0dt1iqR1Fjnm3AdCZHg3SIdWmb7W2CamXw+or50hQ/KjbAEYZ0wOIP8wNImxf7d5U/cCpX18/nHZs95r0PDsAdn6zGKuczoBZronL9D8gsAOHeO8s0Ah/l0luYPceiPXPcRKpHPHYDOXf1cgZXo8jVBJR/IPQ5OCrvswqEDoNO3H+78LA9XeHvs1uAI1Z7WVeP9jju1Uv0f03PtVGfQjr1LUG0NDxj90ZHjHHPSG+ExgjMaBOKf16+lkZ3NU4j8PTTZ9LAwCX52akyAfllyCa9msBN74nmx0zoRsr3OgizptIjLX4zW3YgFlXF0IXPIMy5vc5Ht4Yd9Mb7mLUdN/bFB3SzeN7Ok/D03upYkAXmEs1R9f/mxiKNTAMYc/8b/rgwbt8w7PM5MdhN2MXjei2/Y68BCFy96Dw8NeunVzrM+acUK5OCrBjehogEd4jB+wWf4PQ5NtNQKDTX7te1MfZ8A5buiRUliWHUN9W/mrixefaAdPznRDm5cxI1cz6Acqmvs6O70mXxiHRxTb24K0JpxIfInd0ODB6DWCTJGJ/zw0yYPv8lxiBab7x/u/hhGXRD9dZk17VjYqglPkPIeb2dtlmY0wLKAhq9gNQbTL2L685/aF5KH2jEu4CJ9tpJxtncHG343DcoudvU/3b0OTraSa/LwyiQoIH/d/1uEjg8NwJyS0RpDLv0Ah0nswnhdWhBGmWVep2MJvZa0sqYonqotIJ7q/92Dncv0xzuLa6BWDI5rNvw9NUlOWGt0QE1m6j99/klpCHdBoxHyWeLK3SPNADTbbWXppVx9shHdRE8EMERzhfYJ5cQ8Xc+Ct7LMhYKuzH355I6ItTxjdC9WRqva3oUmiWJX3kG3WyxEUf7z+B/GozHnP8YHR9Z987/wqMG9AooEbXduTiV4oYFAPEcpx7avCg3a2rWVmtwHpz3buJ5pPQT1CgPsejIPdgnDk70OTSiMKvKgQDNaeno+n/3GV5jWxDVLRw+4XuoDrgXdWJu2FKQzUqYPZbkBwb++N57Jd3cx7M6x2tjoL+g4Yx/q1ht7DWZHozWYqYVfv0l+HJicKSmswbqWJoq9EuHjoj/t/C5RcL0iT3MzJRAzhdQPOcQ9allzajEcr5ZW1WAt/7FqlVD56JxE3+VGHgXERm4S5jr65yYztAiNL4lIu8i9Dk7sHVtbcZ8dR18isqOXp4/MfXAviEOxguLc/ZNzbFzF5s5TldU3bNsa1OFpYXTjD+F5whap3UesWRb7nDSYI74yHrTEWZnITUpoDwUtp+/Hn0CQQR6QWzhPT8NTdnJ2P28cB0JUYHoyv8GgzJ4HArsL4lLeTBsd7vBwUAbGaHh47O9Z+RqD2S+4zN9BrmhSWzHU8CHD2tWTKjuXoiCtDqH8ZmqQImQyNUuEPkfdNernGj+e/NxspbgDSgAip5gT21CBsRQMORx0bec1svYc6EsyR/0mN3u2Sbx+xQuw8QVyOjJpcNo9k8Oj9RqbgcR/gz6HJhVGJW+K1MTxrqO7dTsM+3v+XUyV864LO0JXvcwFUdcZsZcH1kmKaQX1BuOvm7RaezbT+MeP9GzDAQXsfyUv5k8qYGxTTurx0atEH8sfQZBZMST1yngkRD6JQUmfz+8fzX0xiuFKzo+kNxZ7rEGw/q+KQlJ4pIbDWW6uJRsLmCG/W5wt3aSYCa16UQ1YodEBw/Fcy0/eyDvN7aNJ4gUiXR1JusgTNiYxlEQRDYvp4BdSJsIGq6TZHwbOp9x2RrI1RhdZkMjdczNirZJxTkRvJPVy7RgKnZiq8MOmRHQPbowDcDk9QA5D6xzUocoRa35kTeFGREFoWPgilfkegQWUeTi314/n/aln03DeX0r5uO/puP9O5IlC3r3jSfRaHt5UaFhAdL+BO5PYYAN5XOt2KJrSX176G2Tp4IgzqraXRgxA7hsRS5xTtjpS5FwyBrmPkm4XRmfWx8dwV/fz9F0VsbUfCp2E9jwsXaAjyFsKoQkdf5nWFs9dZblrsq61GWXMg9FXptSIVek0bJss6y91HbrgBz3XtLvVEWIkag8k1WG4UHJrBofYCmzvefbbUqyVYTz+9fjIm+d3YHO64B0ZyamqiERiiHYU4iJsLeUHKxuQXKrFXEAkRobMTiYCp0hBJkNIRmPcEkzkvuad1gmIp9YFas2wYOusMc+G8DrkgOLIINcDASvWaPn7/abSBnIGQ0POYSTyQa53tDsK2DYjZpONeolPXeJpbi+gHstZzDoCtR0QXuOEWwOMohgAriZciRaO5s0hu1oZBX5vhXEawC1r5vdkZJdLMG4uSxNI/3v80YLUErKx3ndceX3vZN6EcHBK5ECL03TCrWe0G8a5Ak2Z9mKW2yf/nxVBFaq9tyNp2Ou9RyB4diL8E79Leck6+r1t3zPSdeuAq9rGKNRwIi2M/omofn//lGJSslGadN7W1lz9LX9EaUJ3RJywgc1oob1QNfJHqw5NcLSXq6JSS+2iEkux5g8H4xfPKXAljSy8XCcunWUfUu9qQ/oaNEtF6JmMiDCrHKCzf0X/c/7d57UWfcSiaeQeYW/W8shxxYOVhoDdYxLzd4H4Q/8H+pL5SrqXQL+bJe2iSaIXxzCKmZ/jDGhE9dwiYjvfdoPvVl4iKhD/60+n/zLaRdRJOHWh73GcXD/P6P3Rxqp6Ibe0s5aJ1olv3WcLz2m90/wahK/SAFCGraGba5y4yXezduT+HJpWcd0HhUoi0vkbDxL7rtr4RVWWtgqsHJf2dZM/LbAIbs2n4gYva/nH+l01zJuc2mVibdxYtJs4eFlntvoUzKKWtmUc5kax7Y9eBzNasx78PTebdO6Oirekcdt7w+oBugSKXzggB7WK1HbkpBL08g9e+zdzxh2Vf8DG2FR38nHDo6PfnfferMTH03UYjkd9ZWIOBcBWkcRQaXZfcc45/H5osW8IlKiYcoQaxQIMdRLxm88PSuUGH2Zlmc5QMvcssqIPePr/+M1nPHNSVFwg75zojaEVMrNedWwFST2SLyhFeR+maQY3LqWbfflkh/cvQ5EXl6hjxCG4Xtw70/DCvfsXgL6tBDt3ygQqWS+Vt94IBsRA+Xv/dV1micYYitQESE6XiPBgI0YZGirLO6ypjB7m9Ohp423eEfKTNnnetlyX9ZWhSZ7Dl2PoB5tzmZL8557T8zJWqy8N2njPAdg1EZ5mNaOc+Pj//8jPpiWifWURrkGdD4ygDyrkQwoOq1JWN9NdTyQG3hqzUnHzoDREyUcH8OTSpKPG9P09HFJVRMzSFDWbrY2OztlBvcANUgFlhg5ZXKKM+H8f/QK1041g0iGDwTEem2Z5wlQiLyYTjYe/jmsWwbB5cpFs5gmP7Mjbz4lUOfwxNNmYsuoryvMsAJ5sXpBGFBp5D0NbxNPhpPET3bgSy76Ej+Hj8l9CzDUh6Nee+D1uqCrJfqc/Bt+gbtFF0nMFtiXZOy0NfzPFgoId46NH84n4NTWIIDXMAFtcUUEV4u4bH2Ic74sD3Y1fBF4wqblwCmNY/mf+P1792gzpPCPWxM0Bmvh+DwtJSzybGZdvy9fMdFe/HbQWWW23ZnEMHhIfqNWYXKPwMTdbk1tlOaQO/jllY0HjQqBOl5tU9pzQKecRIGE+RPOSeMHyaj+d/HBMz9KXMEAjMW//2Qgk6f2QxkSJa2U8kK0t492nMkj3vc5jlSrj+gNRnpojIDAV+32lbUnonhhi8mgfGRxWeI692kZd92j6lP1d+cB+vc8+gP57/a7PeQffXS8NyxbXExc5rQJZJ8Hw+Xnjwc7g//VzV8GAsRBvo5PXMkgGpjLCO+zWvB+mdVwMXj9v8yV6jE+j453cLgETTGbVNB4jhFvhYZl84PCV8HgATOF/smYlwElDzMYaF4+6EV/7AbG3fg5iTimY/NJ79vLs6vfLMgQ+TX6PUlHYg+48d+03gO2ueOnDN1n+yHw7iHI1f1vnhc2rYjnF3XSRGh6N9HP+iFbt5qw3X1/ssYhgn1eiwTofO/j3Ub7n21vTUMCwK9ajH/7q74n6Wxk2LHoPE+wpZlVK0iaU04jYrIY+UfUB+dYdqsGN0nUPU+uD1UC7FWSj9eP/Xjo+gvdd6tT83EjDGV1hG3KO+bxsDjBu9t6+LM3oOi4GKgDAIf7AWrhDBYzioUqPqR7GiZx+bMOD2EwwCplSXVesa+PKEvbsEi513rSIvNLPe1o+P97++7kO+UWBbBXtPs5MEumPIbq9dlQO2K5V723ut57ze1c4LThEhgTOVgTyu3sdW7YLseXjpLCFDCuaZYrIuoOoIbGbW1+XB+CcOhNLBXCDXn87P7ePrZ3UsEM68t7iady0vFvTfM9ul+brx7U6w7eJYKJtjDYOO0+Jv9U0RRPCRc8oZomG3I/wjMHtjDcHIwPAltXVEV0NCAROlWoBB6c1aNrss2I/n+3j9CyhaJYextdjnd4DRwOGKSGIGaFRiMvn+PCT3xipjwLzmCG5r97OUX/fXkJXwq9D3vyN7RCtCEDyZIeLH/FMvvGf/A8OPYPg5lK0uXgddn4/Dn5nGQ+3MKz6Z7DPvgyuVBf01xutdpAZxnYeExHCmaicKcq85tbxGRMisKX46DOPoE7qflzlHbdzsk3gykqX5LT9zBpZyYUcieXZVs4FwYTtSDw8Cq+fj+PfEg5wXIMxBn1wmF/q5kwr/P40jxAfsbgnb7TDaZWWNvbSTZH5vknHltq2vIQAhx7JQXkgpPr5vtevIkS6uxLwIkdS2PUh5uxk3tFO0LU0CvQrhP97/9Dh5o2O2zhGZ36dxE4R83CMI3jUi+TLQkQuHbLVtI5f9VYnRyg677P1l/M6kzlaGzshiF02QFIOkzZgF92pBzGM3Br5aHwrkXT4LNL1nYvYKxBX98fVzCTJXUnMVS2cD7TbeCObnDSdzOHEfG3rxVFRblFKbW3fEAM0pSYuXOfg1eKWO3Fdq/doNI5Qhbk4relCSxNqUE+IJwUsQZ+Kywd5URYwsB8IBwfnH6z+zpXvpXlJ/qETdpT20BFKldV56w65jr5Kns8wHpSZEDrwEiSdpNzT4UxXLSr0c35SP7SZIpeZVqRtH4LscWxH7guFjcgjDzaaBijz6kouhHte/fh7+iTR92oUYnu1oorDOO6/88mxwQVrwtCWSWNRaFjt0rlE/hBOx9/cdDp7zeZnvazErxrN1NsIdW6upzNbohgzhRPWZYzS/xpza89DdKmSElUIjIX3e/2U+x3NhbWihuf/qRzNjXuce5pc4dTnzvLWVG+K4iN+Cz1XpeYeHQjtmCyJZkGk91kSnCz3K4hyCwTSR7YomoY6S3td8vkP9k9Izu8T3mmdd2H78/ptXZ2oGaFNJWFUOk5EiMUE1Rh5/cjQG1xJ7/OHc60Hkl+lsap93uFTwzuGW3XQ2PB3vL07BoCCNXPuk9fOrUqV0x/sOmGF8DMZpqMzNPolULppXbz4+/3iMlc+vvFm85sh757e3AG0sB0qye2dnfcl2finqXQ8X0eZzIT93+Oj3WJuJgebomB5Hl0awpWwhN46GVZzWfENu4RZm77OFOi5AbXElrsHoh5Sxf9z/01IGF3U/By6Wjzqv6GFC67zWuszMD0UjRxyDZyd5WKtE5f91h1NXuuSZx4pEKYyYMjHX0bUZiVa1iGFnV6zgUI6zsnGNveerz8iSzwsDzRZzlB8/f8K2lUDlZyIpqu2q56lzXNZU8uL0e94B6qtmM2f3iW8C0f7PHV4Qdzpe67wiAJXde7kYqmQjsxUYIc+GdOB9qSxuxnlXRkt2CI/ChFiUEjSWg3w8+41CKwSg6K7COIhpPY8tO7QIs1gJNRxsPS94bOrzjneVluX3HW6zXewgChngK1Pb07wse9WeAK8v0JTiVgCh+7srPDwN2MwIpK7AbyAen+Le5+jUh2VOcPleT//+FrzZ+Y5PdgtxUrYgoxN3SAFGM/vdgd89b/2PO/xgfmuSUs8Dd0Pfz+2ylHXCpuMZa6FqRZgTfPuJcc+pjtQUBIJLVizPC+DPKj/e//54a+HcfVGQeMFVuekTBpwvTdv83gPEwuGBPZ0LpNWwcP2+yuY954qQCB7OXnj6QhbLj/cX3tpLeKun00DwW5DyzkmZvtRZQl0WVKqm4p6QB5mP5//60UtxBckuAuG9gFDW23cb/7zD00FHXPSaV8LPi4HY4jn54w7PMlMes5flQVzok1lcnN95Pceo8Edq977M6cf11aLCTe5AGuKMdNSCtoR2A0R/vvyDDnrOK7LZzEIOxLpct5+s/LzD1ayF99nrNsvba5k2TP64yqbaUt9fcv1unWx8VUHPrxA8EQqiuct8prIhgrg7uhLBOJlfMdxn6XPejfnGQ5+H/7/kIAs+6lZCiX7mLLa5rhmgy5hf/yZmmeTVanDxL1fZ1I3Kd2EA+U8gvJqwSAwSM8nb+/6+AUlgmMjyddj5Fbv1uDHqzaTJ+7cIyM/3/3/lK1/5yle+8pWvfOUrX/nKV77yla985Stf+cpXvvKVr3zlK1/5yle+8pWvfOUrX/nKV77yla985Stf+cpXvvKVr3zlK1/5yle+8pWvfOUrX/nKV77yla985Stf+cpXvvKVr3zlK1/5yle+8pWvfOUrX/nKV77yla985Stf+cpXvvKVr3zlK1/5yle+8pWvfOUrX/nKV77yla985Stf+cpXvvKVr3zlK1/5yle+8hWA/wfdmhmZdymm9wAAMhhpVFh0WE1MOmNvbS5hZG9iZS54bXAAAAAAADw/eHBhY2tldCBiZWdpbj0i77u/IiBpZD0iVzVNME1wQ2VoaUh6cmVTek5UY3prYzlkIj8+Cjx4OnhtcG1ldGEgeG1sbnM6eD0iYWRvYmU6bnM6bWV0YS8iIHg6eG1wdGs9IkFkb2JlIFhNUCBDb3JlIDUuMy1jMDExIDY2LjE0NTY2MSwgMjAxMi8wMi8wNi0xNDo1NjoyNyAgICAgICAgIj4KICAgPHJkZjpSREYgeG1sbnM6cmRmPSJodHRwOi8vd3d3LnczLm9yZy8xOTk5LzAyLzIyLXJkZi1zeW50YXgtbnMjIj4KICAgICAgPHJkZjpEZXNjcmlwdGlvbiByZGY6YWJvdXQ9IiIKICAgICAgICAgICAgeG1sbnM6eG1wPSJodHRwOi8vbnMuYWRvYmUuY29tL3hhcC8xLjAvIj4KICAgICAgICAgPHhtcDpDcmVhdG9yVG9vbD5BZG9iZSBGaXJld29ya3MgQ1M2IChXaW5kb3dzKTwveG1wOkNyZWF0b3JUb29sPgogICAgICAgICA8eG1wOkNyZWF0ZURhdGU+MjAyMS0wNS0yNFQwODozMzoxNFo8L3htcDpDcmVhdGVEYXRlPgogICAgICAgICA8eG1wOk1vZGlmeURhdGU+MjAyMS0wNS0yNFQwODozMzoyOVo8L3htcDpNb2RpZnlEYXRlPgogICAgICA8L3JkZjpEZXNjcmlwdGlvbj4KICAgICAgPHJkZjpEZXNjcmlwdGlvbiByZGY6YWJvdXQ9IiIKICAgICAgICAgICAgeG1sbnM6ZGM9Imh0dHA6Ly9wdXJsLm9yZy9kYy9lbGVtZW50cy8xLjEvIj4KICAgICAgICAgPGRjOmZvcm1hdD5pbWFnZS9wbmc8L2RjOmZvcm1hdD4KICAgICAgPC9yZGY6RGVzY3JpcHRpb24+CiAgIDwvcmRmOlJERj4KPC94OnhtcG1ldGE+CiAgICAgICAgICAgICAgICAgICAgICAgICAgICAgICAgICAgICAgICAgICAgICAgICAgICAgICAgICAgICAgICAgICAgICAgICAgICAgICAgICAgICAgICAgICAgICAgICAgICAKICAgICAgICAgICAgICAgICAgICAgICAgICAgICAgICAgICAgICAgICAgICAgICAgICAgICAgICAgICAgICAgICAgICAgICAgICAgICAgICAgICAgICAgICAgICAgICAgICAgIAogICAgICAgICAgICAgICAgICAgICAgICAgICAgICAgICAgICAgICAgICAgICAgICAgICAgICAgICAgICAgICAgICAgICAgICAgICAgICAgICAgICAgICAgICAgICAgICAgICAgCiAgICAgICAgICAgICAgICAgICAgICAgICAgICAgICAgICAgICAgICAgICAgICAgICAgICAgICAgICAgICAgICAgICAgICAgICAgICAgICAgICAgICAgICAgICAgICAgICAgICAKICAgICAgICAgICAgICAgICAgICAgICAgICAgICAgICAgICAgICAgICAgICAgICAgICAgICAgICAgICAgICAgICAgICAgICAgICAgICAgICAgICAgICAgICAgICAgICAgICAgIAogICAgICAgICAgICAgICAgICAgICAgICAgICAgICAgICAgICAgICAgICAgICAgICAgICAgICAgICAgICAgICAgICAgICAgICAgICAgICAgICAgICAgICAgICAgICAgICAgICAgCiAgICAgICAgICAgICAgICAgICAgICAgICAgICAgICAgICAgICAgICAgICAgICAgICAgICAgICAgICAgICAgICAgICAgICAgICAgICAgICAgICAgICAgICAgICAgICAgICAgICAKICAgICAgICAgICAgICAgICAgICAgICAgICAgICAgICAgICAgICAgICAgICAgICAgICAgICAgICAgICAgICAgICAgICAgICAgICAgICAgICAgICAgICAgICAgICAgICAgICAgIAogICAgICAgICAgICAgICAgICAgICAgICAgICAgICAgICAgICAgICAgICAgICAgICAgICAgICAgICAgICAgICAgICAgICAgICAgICAgICAgICAgICAgICAgICAgICAgICAgICAgCiAgICAgICAgICAgICAgICAgICAgICAgICAgICAgICAgICAgICAgICAgICAgICAgICAgICAgICAgICAgICAgICAgICAgICAgICAgICAgICAgICAgICAgICAgICAgICAgICAgICAKICAgICAgICAgICAgICAgICAgICAgICAgICAgICAgICAgICAgICAgICAgICAgICAgICAgICAgICAgICAgICAgICAgICAgICAgICAgICAgICAgICAgICAgICAgICAgICAgICAgIAogICAgICAgICAgICAgICAgICAgICAgICAgICAgICAgICAgICAgICAgICAgICAgICAgICAgICAgICAgICAgICAgICAgICAgICAgICAgICAgICAgICAgICAgICAgICAgICAgICAgCiAgICAgICAgICAgICAgICAgICAgICAgICAgICAgICAgICAgICAgICAgICAgICAgICAgICAgICAgICAgICAgICAgICAgICAgICAgICAgICAgICAgICAgICAgICAgICAgICAgICAKICAgICAgICAgICAgICAgICAgICAgICAgICAgICAgICAgICAgICAgICAgICAgICAgICAgICAgICAgICAgICAgICAgICAgICAgICAgICAgICAgICAgICAgICAgICAgICAgICAgIAogICAgICAgICAgICAgICAgICAgICAgICAgICAgICAgICAgICAgICAgICAgICAgICAgICAgICAgICAgICAgICAgICAgICAgICAgICAgICAgICAgICAgICAgICAgICAgICAgICAgCiAgICAgICAgICAgICAgICAgICAgICAgICAgICAgICAgICAgICAgICAgICAgICAgICAgICAgICAgICAgICAgICAgICAgICAgICAgICAgICAgICAgICAgICAgICAgICAgICAgICAKICAgICAgICAgICAgICAgICAgICAgICAgICAgICAgICAgICAgICAgICAgICAgICAgICAgICAgICAgICAgICAgICAgICAgICAgICAgICAgICAgICAgICAgICAgICAgICAgICAgIAogICAgICAgICAgICAgICAgICAgICAgICAgICAgICAgICAgICAgICAgICAgICAgICAgICAgICAgICAgICAgICAgICAgICAgICAgICAgICAgICAgICAgICAgICAgICAgICAgICAgCiAgICAgICAgICAgICAgICAgICAgICAgICAgICAgICAgICAgICAgICAgICAgICAgICAgICAgICAgICAgICAgICAgICAgICAgICAgICAgICAgICAgICAgICAgICAgICAgICAgICAKICAgICAgICAgICAgICAgICAgICAgICAgICAgICAgICAgICAgICAgICAgICAgICAgICAgICAgICAgICAgICAgICAgICAgICAgICAgICAgICAgICAgICAgICAgICAgICAgICAgIAogICAgICAgICAgICAgICAgICAgICAgICAgICAgICAgICAgICAgICAgICAgICAgICAgICAgICAgICAgICAgICAgICAgICAgICAgICAgICAgICAgICAgICAgICAgICAgICAgICAgCiAgICAgICAgICAgICAgICAgICAgICAgICAgICAgICAgICAgICAgICAgICAgICAgICAgICAgICAgICAgICAgICAgICAgICAgICAgICAgICAgICAgICAgICAgICAgICAgICAgICAKICAgICAgICAgICAgICAgICAgICAgICAgICAgICAgICAgICAgICAgICAgICAgICAgICAgICAgICAgICAgICAgICAgICAgICAgICAgICAgICAgICAgICAgICAgICAgICAgICAgIAogICAgICAgICAgICAgICAgICAgICAgICAgICAgICAgICAgICAgICAgICAgICAgICAgICAgICAgICAgICAgICAgICAgICAgICAgICAgICAgICAgICAgICAgICAgICAgICAgICAgCiAgICAgICAgICAgICAgICAgICAgICAgICAgICAgICAgICAgICAgICAgICAgICAgICAgICAgICAgICAgICAgICAgICAgICAgICAgICAgICAgICAgICAgICAgICAgICAgICAgICAKICAgICAgICAgICAgICAgICAgICAgICAgICAgICAgICAgICAgICAgICAgICAgICAgICAgICAgICAgICAgICAgICAgICAgICAgICAgICAgICAgICAgICAgICAgICAgICAgICAgIAogICAgICAgICAgICAgICAgICAgICAgICAgICAgICAgICAgICAgICAgICAgICAgICAgICAgICAgICAgICAgICAgICAgICAgICAgICAgICAgICAgICAgICAgICAgICAgICAgICAgCiAgICAgICAgICAgICAgICAgICAgICAgICAgICAgICAgICAgICAgICAgICAgICAgICAgICAgICAgICAgICAgICAgICAgICAgICAgICAgICAgICAgICAgICAgICAgICAgICAgICAKICAgICAgICAgICAgICAgICAgICAgICAgICAgICAgICAgICAgICAgICAgICAgICAgICAgICAgICAgICAgICAgICAgICAgICAgICAgICAgICAgICAgICAgICAgICAgICAgICAgIAogICAgICAgICAgICAgICAgICAgICAgICAgICAgICAgICAgICAgICAgICAgICAgICAgICAgICAgICAgICAgICAgICAgICAgICAgICAgICAgICAgICAgICAgICAgICAgICAgICAgCiAgICAgICAgICAgICAgICAgICAgICAgICAgICAgICAgICAgICAgICAgICAgICAgICAgICAgICAgICAgICAgICAgICAgICAgICAgICAgICAgICAgICAgICAgICAgICAgICAgICAKICAgICAgICAgICAgICAgICAgICAgICAgICAgICAgICAgICAgICAgICAgICAgICAgICAgICAgICAgICAgICAgICAgICAgICAgICAgICAgICAgICAgICAgICAgICAgICAgICAgIAogICAgICAgICAgICAgICAgICAgICAgICAgICAgICAgICAgICAgICAgICAgICAgICAgICAgICAgICAgICAgICAgICAgICAgICAgICAgICAgICAgICAgICAgICAgICAgICAgICAgCiAgICAgICAgICAgICAgICAgICAgICAgICAgICAgICAgICAgICAgICAgICAgICAgICAgICAgICAgICAgICAgICAgICAgICAgICAgICAgICAgICAgICAgICAgICAgICAgICAgICAKICAgICAgICAgICAgICAgICAgICAgICAgICAgICAgICAgICAgICAgICAgICAgICAgICAgICAgICAgICAgICAgICAgICAgICAgICAgICAgICAgICAgICAgICAgICAgICAgICAgIAogICAgICAgICAgICAgICAgICAgICAgICAgICAgICAgICAgICAgICAgICAgICAgICAgICAgICAgICAgICAgICAgICAgICAgICAgICAgICAgICAgICAgICAgICAgICAgICAgICAgCiAgICAgICAgICAgICAgICAgICAgICAgICAgICAgICAgICAgICAgICAgICAgICAgICAgICAgICAgICAgICAgICAgICAgICAgICAgICAgICAgICAgICAgICAgICAgICAgICAgICAKICAgICAgICAgICAgICAgICAgICAgICAgICAgICAgICAgICAgICAgICAgICAgICAgICAgICAgICAgICAgICAgICAgICAgICAgICAgICAgICAgICAgICAgICAgICAgICAgICAgIAogICAgICAgICAgICAgICAgICAgICAgICAgICAgICAgICAgICAgICAgICAgICAgICAgICAgICAgICAgICAgICAgICAgICAgICAgICAgICAgICAgICAgICAgICAgICAgICAgICAgCiAgICAgICAgICAgICAgICAgICAgICAgICAgICAgICAgICAgICAgICAgICAgICAgICAgICAgICAgICAgICAgICAgICAgICAgICAgICAgICAgICAgICAgICAgICAgICAgICAgICAKICAgICAgICAgICAgICAgICAgICAgICAgICAgICAgICAgICAgICAgICAgICAgICAgICAgICAgICAgICAgICAgICAgICAgICAgICAgICAgICAgICAgICAgICAgICAgICAgICAgIAogICAgICAgICAgICAgICAgICAgICAgICAgICAgICAgICAgICAgICAgICAgICAgICAgICAgICAgICAgICAgICAgICAgICAgICAgICAgICAgICAgICAgICAgICAgICAgICAgICAgCiAgICAgICAgICAgICAgICAgICAgICAgICAgICAgICAgICAgICAgICAgICAgICAgICAgICAgICAgICAgICAgICAgICAgICAgICAgICAgICAgICAgICAgICAgICAgICAgICAgICAKICAgICAgICAgICAgICAgICAgICAgICAgICAgICAgICAgICAgICAgICAgICAgICAgICAgICAgICAgICAgICAgICAgICAgICAgICAgICAgICAgICAgICAgICAgICAgICAgICAgIAogICAgICAgICAgICAgICAgICAgICAgICAgICAgICAgICAgICAgICAgICAgICAgICAgICAgICAgICAgICAgICAgICAgICAgICAgICAgICAgICAgICAgICAgICAgICAgICAgICAgCiAgICAgICAgICAgICAgICAgICAgICAgICAgICAgICAgICAgICAgICAgICAgICAgICAgICAgICAgICAgICAgICAgICAgICAgICAgICAgICAgICAgICAgICAgICAgICAgICAgICAKICAgICAgICAgICAgICAgICAgICAgICAgICAgICAgICAgICAgICAgICAgICAgICAgICAgICAgICAgICAgICAgICAgICAgICAgICAgICAgICAgICAgICAgICAgICAgICAgICAgIAogICAgICAgICAgICAgICAgICAgICAgICAgICAgICAgICAgICAgICAgICAgICAgICAgICAgICAgICAgICAgICAgICAgICAgICAgICAgICAgICAgICAgICAgICAgICAgICAgICAgCiAgICAgICAgICAgICAgICAgICAgICAgICAgICAgICAgICAgICAgICAgICAgICAgICAgICAgICAgICAgICAgICAgICAgICAgICAgICAgICAgICAgICAgICAgICAgICAgICAgICAKICAgICAgICAgICAgICAgICAgICAgICAgICAgICAgICAgICAgICAgICAgICAgICAgICAgICAgICAgICAgICAgICAgICAgICAgICAgICAgICAgICAgICAgICAgICAgICAgICAgIAogICAgICAgICAgICAgICAgICAgICAgICAgICAgICAgICAgICAgICAgICAgICAgICAgICAgICAgICAgICAgICAgICAgICAgICAgICAgICAgICAgICAgICAgICAgICAgICAgICAgCiAgICAgICAgICAgICAgICAgICAgICAgICAgICAgICAgICAgICAgICAgICAgICAgICAgICAgICAgICAgICAgICAgICAgICAgICAgICAgICAgICAgICAgICAgICAgICAgICAgICAKICAgICAgICAgICAgICAgICAgICAgICAgICAgICAgICAgICAgICAgICAgICAgICAgICAgICAgICAgICAgICAgICAgICAgICAgICAgICAgICAgICAgICAgICAgICAgICAgICAgIAogICAgICAgICAgICAgICAgICAgICAgICAgICAgICAgICAgICAgICAgICAgICAgICAgICAgICAgICAgICAgICAgICAgICAgICAgICAgICAgICAgICAgICAgICAgICAgICAgICAgCiAgICAgICAgICAgICAgICAgICAgICAgICAgICAgICAgICAgICAgICAgICAgICAgICAgICAgICAgICAgICAgICAgICAgICAgICAgICAgICAgICAgICAgICAgICAgICAgICAgICAKICAgICAgICAgICAgICAgICAgICAgICAgICAgICAgICAgICAgICAgICAgICAgICAgICAgICAgICAgICAgICAgICAgICAgICAgICAgICAgICAgICAgICAgICAgICAgICAgICAgIAogICAgICAgICAgICAgICAgICAgICAgICAgICAgICAgICAgICAgICAgICAgICAgICAgICAgICAgICAgICAgICAgICAgICAgICAgICAgICAgICAgICAgICAgICAgICAgICAgICAgCiAgICAgICAgICAgICAgICAgICAgICAgICAgICAgICAgICAgICAgICAgICAgICAgICAgICAgICAgICAgICAgICAgICAgICAgICAgICAgICAgICAgICAgICAgICAgICAgICAgICAKICAgICAgICAgICAgICAgICAgICAgICAgICAgICAgICAgICAgICAgICAgICAgICAgICAgICAgICAgICAgICAgICAgICAgICAgICAgICAgICAgICAgICAgICAgICAgICAgICAgIAogICAgICAgICAgICAgICAgICAgICAgICAgICAgICAgICAgICAgICAgICAgICAgICAgICAgICAgICAgICAgICAgICAgICAgICAgICAgICAgICAgICAgICAgICAgICAgICAgICAgCiAgICAgICAgICAgICAgICAgICAgICAgICAgICAgICAgICAgICAgICAgICAgICAgICAgICAgICAgICAgICAgICAgICAgICAgICAgICAgICAgICAgICAgICAgICAgICAgICAgICAKICAgICAgICAgICAgICAgICAgICAgICAgICAgICAgICAgICAgICAgICAgICAgICAgICAgICAgICAgICAgICAgICAgICAgICAgICAgICAgICAgICAgICAgICAgICAgICAgICAgIAogICAgICAgICAgICAgICAgICAgICAgICAgICAgICAgICAgICAgICAgICAgICAgICAgICAgICAgICAgICAgICAgICAgICAgICAgICAgICAgICAgICAgICAgICAgICAgICAgICAgCiAgICAgICAgICAgICAgICAgICAgICAgICAgICAgICAgICAgICAgICAgICAgICAgICAgICAgICAgICAgICAgICAgICAgICAgICAgICAgICAgICAgICAgICAgICAgICAgICAgICAKICAgICAgICAgICAgICAgICAgICAgICAgICAgICAgICAgICAgICAgICAgICAgICAgICAgICAgICAgICAgICAgICAgICAgICAgICAgICAgICAgICAgICAgICAgICAgICAgICAgIAogICAgICAgICAgICAgICAgICAgICAgICAgICAgICAgICAgICAgICAgICAgICAgICAgICAgICAgICAgICAgICAgICAgICAgICAgICAgICAgICAgICAgICAgICAgICAgICAgICAgCiAgICAgICAgICAgICAgICAgICAgICAgICAgICAgICAgICAgICAgICAgICAgICAgICAgICAgICAgICAgICAgICAgICAgICAgICAgICAgICAgICAgICAgICAgICAgICAgICAgICAKICAgICAgICAgICAgICAgICAgICAgICAgICAgICAgICAgICAgICAgICAgICAgICAgICAgICAgICAgICAgICAgICAgICAgICAgICAgICAgICAgICAgICAgICAgICAgICAgICAgIAogICAgICAgICAgICAgICAgICAgICAgICAgICAgICAgICAgICAgICAgICAgICAgICAgICAgICAgICAgICAgICAgICAgICAgICAgICAgICAgICAgICAgICAgICAgICAgICAgICAgCiAgICAgICAgICAgICAgICAgICAgICAgICAgICAgICAgICAgICAgICAgICAgICAgICAgICAgICAgICAgICAgICAgICAgICAgICAgICAgICAgICAgICAgICAgICAgICAgICAgICAKICAgICAgICAgICAgICAgICAgICAgICAgICAgICAgICAgICAgICAgICAgICAgICAgICAgICAgICAgICAgICAgICAgICAgICAgICAgICAgICAgICAgICAgICAgICAgICAgICAgIAogICAgICAgICAgICAgICAgICAgICAgICAgICAgICAgICAgICAgICAgICAgICAgICAgICAgICAgICAgICAgICAgICAgICAgICAgICAgICAgICAgICAgICAgICAgICAgICAgICAgCiAgICAgICAgICAgICAgICAgICAgICAgICAgICAgICAgICAgICAgICAgICAgICAgICAgICAgICAgICAgICAgICAgICAgICAgICAgICAgICAgICAgICAgICAgICAgICAgICAgICAKICAgICAgICAgICAgICAgICAgICAgICAgICAgICAgICAgICAgICAgICAgICAgICAgICAgICAgICAgICAgICAgICAgICAgICAgICAgICAgICAgICAgICAgICAgICAgICAgICAgIAogICAgICAgICAgICAgICAgICAgICAgICAgICAgICAgICAgICAgICAgICAgICAgICAgICAgICAgICAgICAgICAgICAgICAgICAgICAgICAgICAgICAgICAgICAgICAgICAgICAgCiAgICAgICAgICAgICAgICAgICAgICAgICAgICAgICAgICAgICAgICAgICAgICAgICAgICAgICAgICAgICAgICAgICAgICAgICAgICAgICAgICAgICAgICAgICAgICAgICAgICAKICAgICAgICAgICAgICAgICAgICAgICAgICAgICAgICAgICAgICAgICAgICAgICAgICAgICAgICAgICAgICAgICAgICAgICAgICAgICAgICAgICAgICAgICAgICAgICAgICAgIAogICAgICAgICAgICAgICAgICAgICAgICAgICAgICAgICAgICAgICAgICAgICAgICAgICAgICAgICAgICAgICAgICAgICAgICAgICAgICAgICAgICAgICAgICAgICAgICAgICAgCiAgICAgICAgICAgICAgICAgICAgICAgICAgICAgICAgICAgICAgICAgICAgICAgICAgICAgICAgICAgICAgICAgICAgICAgICAgICAgICAgICAgICAgICAgICAgICAgICAgICAKICAgICAgICAgICAgICAgICAgICAgICAgICAgICAgICAgICAgICAgICAgICAgICAgICAgICAgICAgICAgICAgICAgICAgICAgICAgICAgICAgICAgICAgICAgICAgICAgICAgIAogICAgICAgICAgICAgICAgICAgICAgICAgICAgICAgICAgICAgICAgICAgICAgICAgICAgICAgICAgICAgICAgICAgICAgICAgICAgICAgICAgICAgICAgICAgICAgICAgICAgCiAgICAgICAgICAgICAgICAgICAgICAgICAgICAgICAgICAgICAgICAgICAgICAgICAgICAgICAgICAgICAgICAgICAgICAgICAgICAgICAgICAgICAgICAgICAgICAgICAgICAKICAgICAgICAgICAgICAgICAgICAgICAgICAgICAgICAgICAgICAgICAgICAgICAgICAgICAgICAgICAgICAgICAgICAgICAgICAgICAgICAgICAgICAgICAgICAgICAgICAgIAogICAgICAgICAgICAgICAgICAgICAgICAgICAgICAgICAgICAgICAgICAgICAgICAgICAgICAgICAgICAgICAgICAgICAgICAgICAgICAgICAgICAgICAgICAgICAgICAgICAgCiAgICAgICAgICAgICAgICAgICAgICAgICAgICAgICAgICAgICAgICAgICAgICAgICAgICAgICAgICAgICAgICAgICAgICAgICAgICAgICAgICAgICAgICAgICAgICAgICAgICAKICAgICAgICAgICAgICAgICAgICAgICAgICAgICAgICAgICAgICAgICAgICAgICAgICAgICAgICAgICAgICAgICAgICAgICAgICAgICAgICAgICAgICAgICAgICAgICAgICAgIAogICAgICAgICAgICAgICAgICAgICAgICAgICAgICAgICAgICAgICAgICAgICAgICAgICAgICAgICAgICAgICAgICAgICAgICAgICAgICAgICAgICAgICAgICAgICAgICAgICAgCiAgICAgICAgICAgICAgICAgICAgICAgICAgICAgICAgICAgICAgICAgICAgICAgICAgICAgICAgICAgICAgICAgICAgICAgICAgICAgICAgICAgICAgICAgICAgICAgICAgICAKICAgICAgICAgICAgICAgICAgICAgICAgICAgICAgICAgICAgICAgICAgICAgICAgICAgICAgICAgICAgICAgICAgICAgICAgICAgICAgICAgICAgICAgICAgICAgICAgICAgIAogICAgICAgICAgICAgICAgICAgICAgICAgICAgICAgICAgICAgICAgICAgICAgICAgICAgICAgICAgICAgICAgICAgICAgICAgICAgICAgICAgICAgICAgICAgICAgICAgICAgCiAgICAgICAgICAgICAgICAgICAgICAgICAgICAgICAgICAgICAgICAgICAgICAgICAgICAgICAgICAgICAgICAgICAgICAgICAgICAgICAgICAgICAgICAgICAgICAgICAgICAKICAgICAgICAgICAgICAgICAgICAgICAgICAgICAgICAgICAgICAgICAgICAgICAgICAgICAgICAgICAgICAgICAgICAgICAgICAgICAgICAgICAgICAgICAgICAgICAgICAgIAogICAgICAgICAgICAgICAgICAgICAgICAgICAgICAgICAgICAgICAgICAgICAgICAgICAgICAgICAgICAgICAgICAgICAgICAgICAgICAgICAgICAgICAgICAgICAgICAgICAgCiAgICAgICAgICAgICAgICAgICAgICAgICAgICAgICAgICAgICAgICAgICAgICAgICAgICAgICAgICAgICAgICAgICAgICAgICAgICAgICAgICAgICAgICAgICAgICAgICAgICAKICAgICAgICAgICAgICAgICAgICAgICAgICAgICAgICAgICAgICAgICAgICAgICAgICAgICAgICAgICAgICAgICAgICAgICAgICAgICAgICAgICAgICAgICAgICAgICAgICAgIAogICAgICAgICAgICAgICAgICAgICAgICAgICAgICAgICAgICAgICAgICAgICAgICAgICAgICAgICAgICAgICAgICAgICAgICAgICAgICAgICAgICAgICAgICAgICAgICAgICAgCiAgICAgICAgICAgICAgICAgICAgICAgICAgICAgICAgICAgICAgICAgICAgICAgICAgICAgICAgICAgICAgICAgICAgICAgICAgICAgICAgICAgICAgICAgICAgICAgICAgICAKICAgICAgICAgICAgICAgICAgICAgICAgICAgICAgICAgICAgICAgICAgICAgICAgICAgICAgICAgICAgICAgICAgICAgICAgICAgICAgICAgICAgICAgICAgICAgICAgICAgIAogICAgICAgICAgICAgICAgICAgICAgICAgICAgICAgICAgICAgICAgICAgICAgICAgICAgICAgICAgICAgICAgICAgICAgICAgICAgICAgICAgICAgICAgICAgICAgICAgICAgCiAgICAgICAgICAgICAgICAgICAgICAgICAgICAgICAgICAgICAgICAgICAgICAgICAgICAgICAgICAgICAgICAgICAgICAgICAgICAgICAgICAgICAgICAgICAgICAgICAgICAKICAgICAgICAgICAgICAgICAgICAgICAgICAgICAgICAgICAgICAgICAgICAgICAgICAgICAgICAgICAgICAgICAgICAgICAgICAgICAgICAgICAgICAgICAgICAgICAgICAgIAogICAgICAgICAgICAgICAgICAgICAgICAgICAgICAgICAgICAgICAgICAgICAgICAgICAgICAgICAgICAgICAgICAgICAgICAgICAgICAgICAgICAgICAgICAgICAgICAgICAgCiAgICAgICAgICAgICAgICAgICAgICAgICAgICAgICAgICAgICAgICAgICAgICAgICAgICAgICAgICAgICAgICAgICAgICAgICAgICAgICAgICAgICAgICAgICAgICAgICAgICAKICAgICAgICAgICAgICAgICAgICAgICAgICAgICAgICAgICAgICAgICAgICAgICAgICAgICAgICAgICAgICAgICAgICAgICAgICAgICAgICAgICAgICAgICAgICAgICAgICAgIAogICAgICAgICAgICAgICAgICAgICAgICAgICAgICAgICAgICAgICAgICAgICAgICAgICAgICAgICAgICAgICAgICAgICAgICAgICAgICAgICAgICAgICAgICAgICAgICAgICAgCiAgICAgICAgICAgICAgICAgICAgICAgICAgICAgICAgICAgICAgICAgICAgICAgICAgICAgICAgICAgICAgICAgICAgICAgICAgICAgICAgICAgICAgICAgICAgICAgICAgICAKICAgICAgICAgICAgICAgICAgICAgICAgICAgICAgICAgICAgICAgICAgICAgICAgICAgICAgICAgICAgICAgICAgICAgICAgICAgICAgICAgICAgICAgICAgICAgICAgICAgIAogICAgICAgICAgICAgICAgICAgICAgICAgICAgICAgICAgICAgICAgICAgICAgICAgICAgICAgICAgICAgICAgICAgICAgICAgICAgICAgICAgICAgICAgICAgICAgICAgICAgCiAgICAgICAgICAgICAgICAgICAgICAgICAgICAgICAgICAgICAgICAgICAgICAgICAgICAgICAgICAgICAgICAgICAgICAgICAgICAgICAgICAgICAgICAgICAgICAgICAgICAKICAgICAgICAgICAgICAgICAgICAgICAgICAgICAgICAgICAgICAgICAgICAgICAgICAgICAgICAgICAgICAgICAgICAgICAgICAgICAgICAgICAgICAgICAgICAgICAgICAgIAogICAgICAgICAgICAgICAgICAgICAgICAgICAgICAgICAgICAgICAgICAgICAgICAgICAgICAgICAgICAgICAgICAgICAgICAgICAgICAgICAgICAgICAgICAgICAgICAgICAgCiAgICAgICAgICAgICAgICAgICAgICAgICAgICAgICAgICAgICAgICAgICAgICAgICAgICAgICAgICAgICAgICAgICAgICAgICAgICAgICAgICAgICAgICAgICAgICAgICAgICAKICAgICAgICAgICAgICAgICAgICAgICAgICAgICAgICAgICAgICAgICAgICAgICAgICAgICAgICAgICAgICAgICAgICAgICAgICAgICAgICAgICAgICAgICAgICAgICAgICAgIAogICAgICAgICAgICAgICAgICAgICAgICAgICAgICAgICAgICAgICAgICAgICAgICAgICAgICAgICAgICAgICAgICAgICAgICAgICAgICAgICAgICAgICAgICAgICAgICAgICAgCiAgICAgICAgICAgICAgICAgICAgICAgICAgICAgICAgICAgICAgICAgICAgICAgICAgICAgICAgICAgICAgICAgICAgICAgICAgICAgICAgICAgICAgICAgICAgICAgICAgICAKICAgICAgICAgICAgICAgICAgICAgICAgICAgICAgICAgICAgICAgICAgICAgICAgICAgICAgICAgICAgICAgICAgICAgICAgICAgICAgICAgICAgICAgICAgICAgICAgICAgIAogICAgICAgICAgICAgICAgICAgICAgICAgICAgICAgICAgICAgICAgICAgICAgICAgICAgICAgICAgICAgICAgICAgICAgICAgICAgICAgICAgICAgICAgICAgICAgICAgICAgCiAgICAgICAgICAgICAgICAgICAgICAgICAgICAgICAgICAgICAgICAgICAgICAgICAgICAgICAgICAgICAgICAgICAgICAgICAgICAgICAgICAgICAgICAgICAgICAgICAgICAKICAgICAgICAgICAgICAgICAgICAgICAgICAgICAgICAgICAgICAgICAgICAgICAgICAgICAgICAgICAgICAgICAgICAgICAgICAgICAgICAgICAgICAgICAgICAgICAgICAgIAogICAgICAgICAgICAgICAgICAgICAgICAgICAgCjw/eHBhY2tldCBlbmQ9InciPz4TNtv3AAAFLUlEQVR4nO3Wu0tcWxQG8O9cjY4PtBD/gQSmEzsfaYIg6RQLJU0ghQEFBwtBW7XTgBaSQjGNKEK008axSeVjEIIiCA6IoAn4QNHEIdEY1i1u9rl7ztlznKx74XLh+8HAHM/ee+3XfInX398v9/f3GB8f9wAgkUhIdXU1BgcHPQBYXl6WDx8+oLGxER0dHd7Ozo7MzMzg7u4Ob9++zepjXF9fo7u7G/F43FtdXZWlpSU8e/YMHR0dHgIWFxdla2sLAFBWVoZMJoMnT56gq6sra+xMJoOysjIcHx/j3bt3HgBMTU3J/v4+Xr16hdraWm91dVVWVlZQWVnptwfgr2Vubk4+fvyI9vZ2PH36NDSXRCIhpaWlePPmjQcAw8PDcn5+7q/TFqxl5m9qDQ8Piz3XVCols7OzsMcP7ptdy+yLWYNZjxk/ONfx8XE5OTnJat/c3Iznz597APD69WupqKjwzzl4BhsbG6Ez/jWu8xzsuZo70tTUhJaWlpx3wpyTXTudTsvk5GRkLfs+LS8vSzKZRENDA16+fOml02mZmJhArrmtr6/L/Pw8Hj9+jL6+vtDag2ds7siLFy9QX1/vpVIpef/+PSorK/19BeDv+8DAgJixzFxd6/zVR46OjvxaAwMDcnl5Gboj9u8vkUhIUVGRvzejo6NycXHh/1YAoK2tzb/PrnPq7e1FPB7Pmk+uM7Zrue6IOeNUKiUAIABERCDy13M8Hvefx8bGBIAMDQ2JiGBtbU1cfYKf7e1tERFMTk4KABkZGfHb25+hoaFQ387OThERbG9vh97ZdXt6egSArK2tZdWyP/Za+vv7BYAsLCw45wJAqqqq/Hc1NTUCQPb390Ptp6enQ7Xq6upCfc3z0tKSBMePWtvIyEjoXU1NjeSaa2tra6j99PR0qJZr3aaWOeNkMpnXGZt9MXdkdHQ0sr05J/uzubmZV63Nzc2sWj09PRLs79rH2dlZASCtra3Otcfj8az25j4mk0mxzy3X+OXl5aF3pm/wY84o2Dd4R4LnbLepq6sL1bPvc777HnXGUXdkbGxMRAQLCwvyBxyKi4tdf1YpKCiIfB+Lxf61Wi72Wsy/ylE1Kyoq/O8lJSUAEErtfGqZvlHjR/G8cMngmPY6Hj16lNe4Uf7pWRQWFqr7lpeX/1b7oqKivNqZM8m1P5q7XlVV5X83/yPRyNU3190BdPN96DeoEYvF4AwPIqKHMDyISIXhQUQqDA8iUmF4EJEKw4OIVBgeRKTC8CAiFYYHEakwPIhIheFBRCoMDyJSYXgQkQrDg4hUGB5EpMLwICIVhgcRqTA8iEiF4UFEKgwPIlJheBCRCsODiFQYHkSkwvAgIhWGBxGpMDyISIXhQUQqDA8iUmF4EJEKw4OIVBgeRKTC8CAiFYYHEakwPIhIheFBRCoMDyJSYXgQkQrDg4hUGB5EpMLwICIVhgcRqTA8iEiF4UFEKgwPIlJheBCRCsODiFQYHkSWWCz2X0/hf8MZHru7u/73Hz9+AAAymQwA4ObmJq+Bv3//DgD48uVL1nPQxcVF6G9XV1eRfYzLy8usZzNHm72W6+vrB8c9PDz0v3/+/BkAkE6nJdju58+fob6fPn3yv+/t7T04voup9e3bt9A7Mx/X89nZWai9a46utZj9cJ1FFDNHc0e+fv0a2d51d8wcH7pXpp2pZe6Va42229tbAO79AbLvB/D3Hph+rrti71PwTOy+QScnJ1nPwb6m1sHBgbM/AJyenuZdz3DtUVSfqDtyf3/vP/8JXSw4PW7RzoEAAAAASUVORK5CYII=;" vertex="1" parent="1">
          <mxGeometry x="-1070" y="407" width="159.41" height="30" as="geometry" />
        </mxCell>
        <mxCell id="SG6jkDlS0VIner6yAyDT-92" value="&lt;div&gt;Resim&lt;/div&gt;&lt;div&gt;&lt;font color=&quot;#FF3333&quot;&gt;&lt;b&gt;&lt;i&gt;Resim Eklendiği Tarih&lt;/i&gt;&lt;/b&gt;&lt;/font&gt;&lt;br&gt;&lt;/div&gt;" style="verticalLabelPosition=bottom;verticalAlign=top;html=1;shape=mxgraph.basic.polygon;polyCoords=[[0.25,0],[0.75,0],[1,0.25],[1,0.75],[0.75,1],[0.25,1],[0,0.75],[0,0.25]];polyline=0;strokeWidth=3;gradientColor=none;" vertex="1" parent="1">
          <mxGeometry x="-820" y="400" width="90" height="80" as="geometry" />
        </mxCell>
        <mxCell id="SG6jkDlS0VIner6yAyDT-96" value="Kaydet" style="label;whiteSpace=wrap;html=1;image=img/clipart/Gear_128x128.png;strokeWidth=3;gradientColor=none;" vertex="1" parent="1">
          <mxGeometry x="-910.5899999999999" y="660" width="100" height="40" as="geometry" />
        </mxCell>
        <mxCell id="SG6jkDlS0VIner6yAyDT-97" value="İptal" style="label;whiteSpace=wrap;html=1;image=img/clipart/Gear_128x128.png;strokeWidth=3;gradientColor=none;" vertex="1" parent="1">
          <mxGeometry x="-800" y="660" width="100" height="40" as="geometry" />
        </mxCell>
        <mxCell id="SG6jkDlS0VIner6yAyDT-102" value="Sekreter Giriş Ekranı" style="swimlane;fontStyle=0;childLayout=stackLayout;horizontal=1;startSize=20;horizontalStack=0;resizeParent=1;resizeParentMax=0;resizeLast=0;collapsible=1;marginBottom=0;strokeWidth=3;strokeColor=#6c8ebf;swimlaneFillColor=#ffffff;fillColor=#dae8fc;" vertex="1" parent="1">
          <mxGeometry x="-550" y="270" width="410" height="260" as="geometry" />
        </mxCell>
        <mxCell id="SG6jkDlS0VIner6yAyDT-107" value="Yeni Öğrenci Kayıt" style="label;whiteSpace=wrap;html=1;image=img/clipart/Gear_128x128.png;strokeWidth=3;gradientColor=none;arcSize=50;" vertex="1" parent="SG6jkDlS0VIner6yAyDT-102">
          <mxGeometry y="20" width="410" height="60" as="geometry" />
        </mxCell>
        <mxCell id="SG6jkDlS0VIner6yAyDT-109" value="Ödeme Al" style="label;whiteSpace=wrap;html=1;image=img/clipart/Gear_128x128.png;strokeWidth=3;gradientColor=none;arcSize=50;" vertex="1" parent="SG6jkDlS0VIner6yAyDT-102">
          <mxGeometry y="80" width="410" height="60" as="geometry" />
        </mxCell>
        <mxCell id="SG6jkDlS0VIner6yAyDT-110" value="Öğrenci Raporları" style="label;whiteSpace=wrap;html=1;image=img/clipart/Gear_128x128.png;strokeWidth=3;gradientColor=none;arcSize=50;" vertex="1" parent="SG6jkDlS0VIner6yAyDT-102">
          <mxGeometry y="140" width="410" height="60" as="geometry" />
        </mxCell>
        <mxCell id="SG6jkDlS0VIner6yAyDT-111" value="Günün Raporunu Al" style="label;whiteSpace=wrap;html=1;image=img/clipart/Gear_128x128.png;strokeWidth=3;gradientColor=none;arcSize=50;" vertex="1" parent="SG6jkDlS0VIner6yAyDT-102">
          <mxGeometry y="200" width="410" height="60" as="geometry" />
        </mxCell>
        <mxCell id="SG6jkDlS0VIner6yAyDT-113" style="edgeStyle=orthogonalEdgeStyle;rounded=0;orthogonalLoop=1;jettySize=auto;html=1;exitX=1;exitY=0.5;exitDx=0;exitDy=0;entryX=0;entryY=0.5;entryDx=0;entryDy=0;" edge="1" parent="1" source="SG6jkDlS0VIner6yAyDT-81" target="SG6jkDlS0VIner6yAyDT-107">
          <mxGeometry relative="1" as="geometry">
            <mxPoint x="-700" y="440" as="targetPoint" />
          </mxGeometry>
        </mxCell>
        <mxCell id="SG6jkDlS0VIner6yAyDT-115" value="Ödeme Al" style="swimlane;fontStyle=0;childLayout=stackLayout;horizontal=1;startSize=26;horizontalStack=0;resizeParent=1;resizeParentMax=0;resizeLast=0;collapsible=1;marginBottom=0;strokeWidth=3;fillColor=#99CCFF;gradientColor=none;" vertex="1" parent="1">
          <mxGeometry x="-1170" y="740" width="450" height="104" as="geometry" />
        </mxCell>
        <mxCell id="SG6jkDlS0VIner6yAyDT-116" value="Öğrenci tc yada Öğrenci no" style="text;strokeColor=none;fillColor=none;align=left;verticalAlign=top;spacingLeft=4;spacingRight=4;overflow=hidden;rotatable=0;points=[[0,0.5],[1,0.5]];portConstraint=eastwest;" vertex="1" parent="SG6jkDlS0VIner6yAyDT-115">
          <mxGeometry y="26" width="450" height="26" as="geometry" />
        </mxCell>
        <mxCell id="SG6jkDlS0VIner6yAyDT-117" value="Alınan Tutar" style="text;strokeColor=none;fillColor=none;align=left;verticalAlign=top;spacingLeft=4;spacingRight=4;overflow=hidden;rotatable=0;points=[[0,0.5],[1,0.5]];portConstraint=eastwest;" vertex="1" parent="SG6jkDlS0VIner6yAyDT-115">
          <mxGeometry y="52" width="450" height="26" as="geometry" />
        </mxCell>
        <mxCell id="SG6jkDlS0VIner6yAyDT-118" value="Item 3" style="text;strokeColor=none;fillColor=none;align=left;verticalAlign=top;spacingLeft=4;spacingRight=4;overflow=hidden;rotatable=0;points=[[0,0.5],[1,0.5]];portConstraint=eastwest;" vertex="1" parent="SG6jkDlS0VIner6yAyDT-115">
          <mxGeometry y="78" width="450" height="26" as="geometry" />
        </mxCell>
        <mxCell id="SG6jkDlS0VIner6yAyDT-119" style="edgeStyle=orthogonalEdgeStyle;rounded=0;orthogonalLoop=1;jettySize=auto;html=1;exitX=1;exitY=0.5;exitDx=0;exitDy=0;entryX=0;entryY=0.5;entryDx=0;entryDy=0;entryPerimeter=0;" edge="1" parent="1" source="SG6jkDlS0VIner6yAyDT-117" target="SG6jkDlS0VIner6yAyDT-109">
          <mxGeometry relative="1" as="geometry">
            <mxPoint x="-580" y="380" as="targetPoint" />
            <mxPoint x="-900" y="810" as="sourcePoint" />
            <Array as="points">
              <mxPoint x="-590" y="805" />
              <mxPoint x="-590" y="380" />
            </Array>
          </mxGeometry>
        </mxCell>
      </root>
    </mxGraphModel>
  </diagram>
</mxfile>
